<?xml version="1.0" encoding="UTF-8" standalone="no"?>
<!DOCTYPE svg PUBLIC "-//W3C//DTD SVG 1.1//EN"
 "http://www.w3.org/Graphics/SVG/1.1/DTD/svg11.dtd">
<!-- Generated by graphviz version 2.47.3 (20210619.1520)
 -->
<!-- Title: dependencies Pages: 1 -->
<svg width="304pt" height="247pt"
 viewBox="0.00 0.00 304.00 246.80" xmlns="http://www.w3.org/2000/svg" xmlns:xlink="http://www.w3.org/1999/xlink">
<g id="graph0" class="graph" transform="scale(1 1) rotate(0) translate(4 242.8)">
<title>dependencies</title>
<polygon fill="white" stroke="transparent" points="-4,4 -4,-242.8 300,-242.8 300,4 -4,4"/>
<text text-anchor="middle" x="148" y="-8.2" font-family="sans-serif" font-size="14.00">dependencies</text>
<g id="clust1" class="cluster">
<title>cluster_StepbarModule</title>
<polygon fill="none" stroke="black" stroke-dasharray="1,5" points="8,-32.8 8,-230.8 288,-230.8 288,-32.8 8,-32.8"/>
</g>
<g id="clust5" class="cluster">
<title>cluster_StepbarModule_exports</title>
<polygon fill="none" stroke="black" points="76,-170.8 76,-222.8 220,-222.8 220,-170.8 76,-170.8"/>
</g>
<g id="clust4" class="cluster">
<title>cluster_StepbarModule_imports</title>
<polygon fill="none" stroke="black" points="164,-40.8 164,-92.8 280,-92.8 280,-40.8 164,-40.8"/>
</g>
<g id="clust2" class="cluster">
<title>cluster_StepbarModule_declarations</title>
<polygon fill="none" stroke="black" points="16,-40.8 16,-92.8 156,-92.8 156,-40.8 16,-40.8"/>
</g>
<!-- StepbarComponent -->
<g id="node1" class="node">
<title>StepbarComponent</title>
<polygon fill="#ffffb3" stroke="black" points="148.1,-84.8 23.9,-84.8 23.9,-48.8 148.1,-48.8 148.1,-84.8"/>
<text text-anchor="middle" x="86" y="-62.6" font-family="Times,serif" font-size="14.00">StepbarComponent</text>
</g>
<!-- StepbarModule -->
<g id="node2" class="node">
<title>StepbarModule</title>
<polygon fill="#8dd3c7" stroke="black" points="199.31,-149.8 196.31,-153.8 175.31,-153.8 172.31,-149.8 96.69,-149.8 96.69,-113.8 199.31,-113.8 199.31,-149.8"/>
<text text-anchor="middle" x="148" y="-127.6" font-family="Times,serif" font-size="14.00">StepbarModule</text>
</g>
<!-- StepbarComponent&#45;&gt;StepbarModule -->
<g id="edge1" class="edge">
<title>StepbarComponent&#45;&gt;StepbarModule</title>
<path fill="none" stroke="black" d="M122.45,-84.91C122.45,-84.91 122.45,-103.79 122.45,-103.79"/>
<polygon fill="black" stroke="black" points="118.95,-103.79 122.45,-113.79 125.95,-103.79 118.95,-103.79"/>
</g>
<!-- StepbarComponent  -->
<g id="node4" class="node">
<title>StepbarComponent </title>
<polygon fill="#fb8072" stroke="black" points="211.6,-214.8 84.4,-214.8 84.4,-178.8 211.6,-178.8 211.6,-214.8"/>
<text text-anchor="middle" x="148" y="-192.6" font-family="Times,serif" font-size="14.00">StepbarComponent </text>
</g>
<!-- StepbarModule&#45;&gt;StepbarComponent  -->
<g id="edge3" class="edge">
<title>StepbarModule&#45;&gt;StepbarComponent </title>
<path fill="none" stroke="black" stroke-dasharray="5,2" d="M148,-149.91C148,-149.91 148,-168.79 148,-168.79"/>
<polygon fill="black" stroke="black" points="144.5,-168.79 148,-178.79 151.5,-168.79 144.5,-168.79"/>
</g>
<!-- LoggerModule -->
<g id="node3" class="node">
<title>LoggerModule</title>
<polygon fill="#8dd3c7" stroke="black" points="271.98,-84.8 268.98,-88.8 247.98,-88.8 244.98,-84.8 172.02,-84.8 172.02,-48.8 271.98,-48.8 271.98,-84.8"/>
<text text-anchor="middle" x="222" y="-62.6" font-family="Times,serif" font-size="14.00">LoggerModule</text>
</g>
<!-- LoggerModule&#45;&gt;StepbarModule -->
<g id="edge2" class="edge">
<title>LoggerModule&#45;&gt;StepbarModule</title>
<path fill="none" stroke="black" d="M185.58,-84.91C185.58,-84.91 185.58,-103.79 185.58,-103.79"/>
<polygon fill="black" stroke="black" points="182.08,-103.79 185.58,-113.79 189.08,-103.79 182.08,-103.79"/>
</g>
</g>
</svg>
