<?xml version="1.0" encoding="UTF-8" standalone="no"?>
<!DOCTYPE svg PUBLIC "-//W3C//DTD SVG 1.1//EN"
 "http://www.w3.org/Graphics/SVG/1.1/DTD/svg11.dtd">
<!-- Generated by graphviz version 2.47.3 (20210619.1520)
 -->
<!-- Title: dependencies Pages: 1 -->
<svg width="881pt" height="247pt"
 viewBox="0.00 0.00 881.00 246.80" xmlns="http://www.w3.org/2000/svg" xmlns:xlink="http://www.w3.org/1999/xlink">
<g id="graph0" class="graph" transform="scale(1 1) rotate(0) translate(4 242.8)">
<title>dependencies</title>
<polygon fill="white" stroke="transparent" points="-4,4 -4,-242.8 877,-242.8 877,4 -4,4"/>
<text text-anchor="middle" x="436.5" y="-8.2" font-family="sans-serif" font-size="14.00">dependencies</text>
<g id="clust1" class="cluster">
<title>cluster_SyntheticDrawingModule</title>
<polygon fill="none" stroke="black" stroke-dasharray="1,5" points="8,-32.8 8,-230.8 865,-230.8 865,-32.8 8,-32.8"/>
</g>
<g id="clust6" class="cluster">
<title>cluster_SyntheticDrawingModule_exports</title>
<polygon fill="none" stroke="black" points="136,-170.8 136,-222.8 574,-222.8 574,-170.8 136,-170.8"/>
</g>
<g id="clust8" class="cluster">
<title>cluster_SyntheticDrawingModule_providers</title>
<polygon fill="none" stroke="black" points="579,-40.8 579,-92.8 857,-92.8 857,-40.8 579,-40.8"/>
</g>
<g id="clust2" class="cluster">
<title>cluster_SyntheticDrawingModule_declarations</title>
<polygon fill="none" stroke="black" points="140,-40.8 140,-92.8 571,-92.8 571,-40.8 140,-40.8"/>
</g>
<g id="clust5" class="cluster">
<title>cluster_SyntheticDrawingModule_imports</title>
<polygon fill="none" stroke="black" points="16,-40.8 16,-92.8 132,-92.8 132,-40.8 16,-40.8"/>
</g>
<!-- SyntheticDrawingComponent -->
<g id="node1" class="node">
<title>SyntheticDrawingComponent</title>
<polygon fill="#ffffb3" stroke="black" points="562.7,-84.8 379.3,-84.8 379.3,-48.8 562.7,-48.8 562.7,-84.8"/>
<text text-anchor="middle" x="471" y="-62.6" font-family="Times,serif" font-size="14.00">SyntheticDrawingComponent</text>
</g>
<!-- SyntheticDrawingModule -->
<g id="node3" class="node">
<title>SyntheticDrawingModule</title>
<polygon fill="#8dd3c7" stroke="black" points="443.91,-149.8 440.91,-153.8 419.91,-153.8 416.91,-149.8 282.09,-149.8 282.09,-113.8 443.91,-113.8 443.91,-149.8"/>
<text text-anchor="middle" x="363" y="-127.6" font-family="Times,serif" font-size="14.00">SyntheticDrawingModule</text>
</g>
<!-- SyntheticDrawingComponent&#45;&gt;SyntheticDrawingModule -->
<g id="edge1" class="edge">
<title>SyntheticDrawingComponent&#45;&gt;SyntheticDrawingModule</title>
<path fill="none" stroke="black" d="M411.55,-84.91C411.55,-84.91 411.55,-103.79 411.55,-103.79"/>
<polygon fill="black" stroke="black" points="408.05,-103.79 411.55,-113.79 415.05,-103.79 408.05,-103.79"/>
</g>
<!-- SyntheticDrawingFormComponent -->
<g id="node2" class="node">
<title>SyntheticDrawingFormComponent</title>
<polygon fill="#ffffb3" stroke="black" points="361.53,-84.8 148.47,-84.8 148.47,-48.8 361.53,-48.8 361.53,-84.8"/>
<text text-anchor="middle" x="255" y="-62.6" font-family="Times,serif" font-size="14.00">SyntheticDrawingFormComponent</text>
</g>
<!-- SyntheticDrawingFormComponent&#45;&gt;SyntheticDrawingModule -->
<g id="edge2" class="edge">
<title>SyntheticDrawingFormComponent&#45;&gt;SyntheticDrawingModule</title>
<path fill="none" stroke="black" d="M322.03,-84.91C322.03,-84.91 322.03,-103.79 322.03,-103.79"/>
<polygon fill="black" stroke="black" points="318.53,-103.79 322.03,-113.79 325.53,-103.79 318.53,-103.79"/>
</g>
<!-- SyntheticDrawingComponent  -->
<g id="node5" class="node">
<title>SyntheticDrawingComponent </title>
<polygon fill="#fb8072" stroke="black" points="566.2,-214.8 379.8,-214.8 379.8,-178.8 566.2,-178.8 566.2,-214.8"/>
<text text-anchor="middle" x="473" y="-192.6" font-family="Times,serif" font-size="14.00">SyntheticDrawingComponent </text>
</g>
<!-- SyntheticDrawingModule&#45;&gt;SyntheticDrawingComponent  -->
<g id="edge4" class="edge">
<title>SyntheticDrawingModule&#45;&gt;SyntheticDrawingComponent </title>
<path fill="none" stroke="black" stroke-dasharray="5,2" d="M411.68,-149.91C411.68,-149.91 411.68,-168.79 411.68,-168.79"/>
<polygon fill="black" stroke="black" points="408.18,-168.79 411.68,-178.79 415.18,-168.79 408.18,-168.79"/>
</g>
<!-- SyntheticDrawingFormComponent  -->
<g id="node6" class="node">
<title>SyntheticDrawingFormComponent </title>
<polygon fill="#fb8072" stroke="black" points="361.53,-214.8 144.47,-214.8 144.47,-178.8 361.53,-178.8 361.53,-214.8"/>
<text text-anchor="middle" x="253" y="-192.6" font-family="Times,serif" font-size="14.00">SyntheticDrawingFormComponent </text>
</g>
<!-- SyntheticDrawingModule&#45;&gt;SyntheticDrawingFormComponent  -->
<g id="edge5" class="edge">
<title>SyntheticDrawingModule&#45;&gt;SyntheticDrawingFormComponent </title>
<path fill="none" stroke="black" stroke-dasharray="5,2" d="M321.9,-149.91C321.9,-149.91 321.9,-168.79 321.9,-168.79"/>
<polygon fill="black" stroke="black" points="318.4,-168.79 321.9,-178.79 325.4,-168.79 318.4,-168.79"/>
</g>
<!-- LoggerModule -->
<g id="node4" class="node">
<title>LoggerModule</title>
<polygon fill="#8dd3c7" stroke="black" points="123.98,-84.8 120.98,-88.8 99.98,-88.8 96.98,-84.8 24.02,-84.8 24.02,-48.8 123.98,-48.8 123.98,-84.8"/>
<text text-anchor="middle" x="74" y="-62.6" font-family="Times,serif" font-size="14.00">LoggerModule</text>
</g>
<!-- LoggerModule&#45;&gt;SyntheticDrawingModule -->
<g id="edge3" class="edge">
<title>LoggerModule&#45;&gt;SyntheticDrawingModule</title>
<path fill="none" stroke="black" d="M74,-84.91C74,-104.14 74,-131.8 74,-131.8 74,-131.8 272.11,-131.8 272.11,-131.8"/>
<polygon fill="black" stroke="black" points="272.11,-135.3 282.11,-131.8 272.11,-128.3 272.11,-135.3"/>
</g>
<!-- SyntheticDrawingFormService -->
<g id="node7" class="node">
<title>SyntheticDrawingFormService</title>
<ellipse fill="#fdb462" stroke="black" cx="718" cy="-66.8" rx="131.36" ry="18"/>
<text text-anchor="middle" x="718" y="-62.6" font-family="Times,serif" font-size="14.00">SyntheticDrawingFormService</text>
</g>
<!-- SyntheticDrawingFormService&#45;&gt;SyntheticDrawingModule -->
<g id="edge6" class="edge">
<title>SyntheticDrawingFormService&#45;&gt;SyntheticDrawingModule</title>
<path fill="none" stroke="black" d="M718,-84.91C718,-104.14 718,-131.8 718,-131.8 718,-131.8 454,-131.8 454,-131.8"/>
<polygon fill="black" stroke="black" points="454,-128.3 444,-131.8 454,-135.3 454,-128.3"/>
</g>
</g>
</svg>
