<?xml version="1.0" encoding="UTF-8" standalone="no"?>
<!DOCTYPE svg PUBLIC "-//W3C//DTD SVG 1.1//EN"
 "http://www.w3.org/Graphics/SVG/1.1/DTD/svg11.dtd">
<!-- Generated by graphviz version 2.47.3 (20210619.1520)
 -->
<!-- Title: dependencies Pages: 1 -->
<svg width="585pt" height="174pt"
 viewBox="0.00 0.00 585.00 173.80" xmlns="http://www.w3.org/2000/svg" xmlns:xlink="http://www.w3.org/1999/xlink">
<g id="graph0" class="graph" transform="scale(1 1) rotate(0) translate(4 169.8)">
<title>dependencies</title>
<polygon fill="white" stroke="transparent" points="-4,4 -4,-169.8 581,-169.8 581,4 -4,4"/>
<text text-anchor="middle" x="288.5" y="-8.2" font-family="sans-serif" font-size="14.00">dependencies</text>
<g id="clust1" class="cluster">
<title>cluster_LuplinkModule</title>
<polygon fill="none" stroke="black" stroke-dasharray="1,5" points="8,-32.8 8,-157.8 569,-157.8 569,-32.8 8,-32.8"/>
</g>
<g id="clust3" class="cluster">
<title>cluster_LuplinkModule_imports</title>
<polygon fill="none" stroke="black" points="459,-40.8 459,-92.8 561,-92.8 561,-40.8 459,-40.8"/>
</g>
<g id="clust6" class="cluster">
<title>cluster_LuplinkModule_providers</title>
<polygon fill="none" stroke="black" points="16,-40.8 16,-92.8 451,-92.8 451,-40.8 16,-40.8"/>
</g>
<!-- CardModule -->
<g id="node1" class="node">
<title>CardModule</title>
<polygon fill="#8dd3c7" stroke="black" points="553.26,-84.8 550.26,-88.8 529.26,-88.8 526.26,-84.8 466.74,-84.8 466.74,-48.8 553.26,-48.8 553.26,-84.8"/>
<text text-anchor="middle" x="510" y="-62.6" font-family="Times,serif" font-size="14.00">CardModule</text>
</g>
<!-- LuplinkModule -->
<g id="node2" class="node">
<title>LuplinkModule</title>
<polygon fill="#8dd3c7" stroke="black" points="372.88,-149.8 369.88,-153.8 348.88,-153.8 345.88,-149.8 269.12,-149.8 269.12,-113.8 372.88,-113.8 372.88,-149.8"/>
<text text-anchor="middle" x="321" y="-127.6" font-family="Times,serif" font-size="14.00">LuplinkModule</text>
</g>
<!-- CardModule&#45;&gt;LuplinkModule -->
<g id="edge1" class="edge">
<title>CardModule&#45;&gt;LuplinkModule</title>
<path fill="none" stroke="black" d="M510,-84.91C510,-104.14 510,-131.8 510,-131.8 510,-131.8 382.9,-131.8 382.9,-131.8"/>
<polygon fill="black" stroke="black" points="382.9,-128.3 372.9,-131.8 382.9,-135.3 382.9,-128.3"/>
</g>
<!-- ComputeLinkBudgetService -->
<g id="node3" class="node">
<title>ComputeLinkBudgetService</title>
<ellipse fill="#fdb462" stroke="black" cx="321" cy="-66.8" rx="121.57" ry="18"/>
<text text-anchor="middle" x="321" y="-62.6" font-family="Times,serif" font-size="14.00">ComputeLinkBudgetService</text>
</g>
<!-- ComputeLinkBudgetService&#45;&gt;LuplinkModule -->
<g id="edge2" class="edge">
<title>ComputeLinkBudgetService&#45;&gt;LuplinkModule</title>
<path fill="none" stroke="black" d="M321,-84.91C321,-84.91 321,-103.79 321,-103.79"/>
<polygon fill="black" stroke="black" points="317.5,-103.79 321,-113.79 324.5,-103.79 317.5,-103.79"/>
</g>
<!-- SaveLoadService -->
<g id="node4" class="node">
<title>SaveLoadService</title>
<ellipse fill="#fdb462" stroke="black" cx="103" cy="-66.8" rx="78.71" ry="18"/>
<text text-anchor="middle" x="103" y="-62.6" font-family="Times,serif" font-size="14.00">SaveLoadService</text>
</g>
<!-- SaveLoadService&#45;&gt;LuplinkModule -->
<g id="edge3" class="edge">
<title>SaveLoadService&#45;&gt;LuplinkModule</title>
<path fill="none" stroke="black" d="M103,-84.91C103,-104.14 103,-131.8 103,-131.8 103,-131.8 259.06,-131.8 259.06,-131.8"/>
<polygon fill="black" stroke="black" points="259.06,-135.3 269.06,-131.8 259.06,-128.3 259.06,-135.3"/>
</g>
</g>
</svg>
