<?xml version="1.0" encoding="UTF-8" standalone="no"?>
<!DOCTYPE svg PUBLIC "-//W3C//DTD SVG 1.1//EN"
 "http://www.w3.org/Graphics/SVG/1.1/DTD/svg11.dtd">
<!-- Generated by graphviz version 2.47.3 (20210619.1520)
 -->
<!-- Title: dependencies Pages: 1 -->
<svg width="1677pt" height="247pt"
 viewBox="0.00 0.00 1677.00 246.80" xmlns="http://www.w3.org/2000/svg" xmlns:xlink="http://www.w3.org/1999/xlink">
<g id="graph0" class="graph" transform="scale(1 1) rotate(0) translate(4 242.8)">
<title>dependencies</title>
<polygon fill="white" stroke="transparent" points="-4,4 -4,-242.8 1673,-242.8 1673,4 -4,4"/>
<text text-anchor="middle" x="834.5" y="-8.2" font-family="sans-serif" font-size="14.00">dependencies</text>
<g id="clust1" class="cluster">
<title>cluster_LayoutModule</title>
<polygon fill="none" stroke="black" stroke-dasharray="1,5" points="8,-32.8 8,-230.8 1661,-230.8 1661,-32.8 8,-32.8"/>
</g>
<g id="clust6" class="cluster">
<title>cluster_LayoutModule_imports</title>
<polygon fill="none" stroke="black" points="663,-40.8 663,-92.8 1653,-92.8 1653,-40.8 663,-40.8"/>
</g>
<g id="clust2" class="cluster">
<title>cluster_LayoutModule_declarations</title>
<polygon fill="none" stroke="black" points="218,-40.8 218,-92.8 655,-92.8 655,-40.8 218,-40.8"/>
</g>
<g id="clust9" class="cluster">
<title>cluster_LayoutModule_providers</title>
<polygon fill="none" stroke="black" points="16,-40.8 16,-92.8 210,-92.8 210,-40.8 16,-40.8"/>
</g>
<g id="clust7" class="cluster">
<title>cluster_LayoutModule_exports</title>
<polygon fill="none" stroke="black" points="680,-170.8 680,-222.8 1128,-222.8 1128,-170.8 680,-170.8"/>
</g>
<!-- JSatOrbLinkComponent -->
<g id="node1" class="node">
<title>JSatOrbLinkComponent</title>
<polygon fill="#ffffb3" stroke="black" points="647.38,-84.8 494.62,-84.8 494.62,-48.8 647.38,-48.8 647.38,-84.8"/>
<text text-anchor="middle" x="571" y="-62.6" font-family="Times,serif" font-size="14.00">JSatOrbLinkComponent</text>
</g>
<!-- LayoutModule -->
<g id="node4" class="node">
<title>LayoutModule</title>
<polygon fill="#8dd3c7" stroke="black" points="933.71,-149.8 930.71,-153.8 909.71,-153.8 906.71,-149.8 834.29,-149.8 834.29,-113.8 933.71,-113.8 933.71,-149.8"/>
<text text-anchor="middle" x="884" y="-127.6" font-family="Times,serif" font-size="14.00">LayoutModule</text>
</g>
<!-- JSatOrbLinkComponent&#45;&gt;LayoutModule -->
<g id="edge1" class="edge">
<title>JSatOrbLinkComponent&#45;&gt;LayoutModule</title>
<path fill="none" stroke="black" d="M571,-84.83C571,-101.86 571,-124.8 571,-124.8 571,-124.8 824.06,-124.8 824.06,-124.8"/>
<polygon fill="black" stroke="black" points="824.06,-128.3 834.06,-124.8 824.06,-121.3 824.06,-128.3"/>
</g>
<!-- LayoutComponent -->
<g id="node2" class="node">
<title>LayoutComponent</title>
<polygon fill="#ffffb3" stroke="black" points="476.49,-84.8 355.51,-84.8 355.51,-48.8 476.49,-48.8 476.49,-84.8"/>
<text text-anchor="middle" x="416" y="-62.6" font-family="Times,serif" font-size="14.00">LayoutComponent</text>
</g>
<!-- LayoutComponent&#45;&gt;LayoutModule -->
<g id="edge2" class="edge">
<title>LayoutComponent&#45;&gt;LayoutModule</title>
<path fill="none" stroke="black" d="M416,-85.02C416,-103.63 416,-129.8 416,-129.8 416,-129.8 824.36,-129.8 824.36,-129.8"/>
<polygon fill="black" stroke="black" points="824.36,-133.3 834.36,-129.8 824.36,-126.3 824.36,-133.3"/>
</g>
<!-- ViewComponent -->
<g id="node3" class="node">
<title>ViewComponent</title>
<polygon fill="#ffffb3" stroke="black" points="337.65,-84.8 226.35,-84.8 226.35,-48.8 337.65,-48.8 337.65,-84.8"/>
<text text-anchor="middle" x="282" y="-62.6" font-family="Times,serif" font-size="14.00">ViewComponent</text>
</g>
<!-- ViewComponent&#45;&gt;LayoutModule -->
<g id="edge3" class="edge">
<title>ViewComponent&#45;&gt;LayoutModule</title>
<path fill="none" stroke="black" d="M282,-85.02C282,-105.17 282,-134.8 282,-134.8 282,-134.8 824.22,-134.8 824.22,-134.8"/>
<polygon fill="black" stroke="black" points="824.22,-138.3 834.22,-134.8 824.22,-131.3 824.22,-138.3"/>
</g>
<!-- JSatOrbLinkComponent  -->
<g id="node12" class="node">
<title>JSatOrbLinkComponent </title>
<polygon fill="#fb8072" stroke="black" points="1120.38,-214.8 963.62,-214.8 963.62,-178.8 1120.38,-178.8 1120.38,-214.8"/>
<text text-anchor="middle" x="1042" y="-192.6" font-family="Times,serif" font-size="14.00">JSatOrbLinkComponent </text>
</g>
<!-- LayoutModule&#45;&gt;JSatOrbLinkComponent  -->
<g id="edge11" class="edge">
<title>LayoutModule&#45;&gt;JSatOrbLinkComponent </title>
<path fill="none" stroke="black" stroke-dasharray="5,2" d="M933.69,-144.8C952.88,-144.8 970.29,-144.8 970.29,-144.8 970.29,-144.8 970.29,-168.61 970.29,-168.61"/>
<polygon fill="black" stroke="black" points="966.79,-168.61 970.29,-178.61 973.79,-168.61 966.79,-168.61"/>
</g>
<!-- LayoutComponent  -->
<g id="node13" class="node">
<title>LayoutComponent </title>
<polygon fill="#fb8072" stroke="black" points="946.49,-214.8 821.51,-214.8 821.51,-178.8 946.49,-178.8 946.49,-214.8"/>
<text text-anchor="middle" x="884" y="-192.6" font-family="Times,serif" font-size="14.00">LayoutComponent </text>
</g>
<!-- LayoutModule&#45;&gt;LayoutComponent  -->
<g id="edge12" class="edge">
<title>LayoutModule&#45;&gt;LayoutComponent </title>
<path fill="none" stroke="black" stroke-dasharray="5,2" d="M884,-149.91C884,-149.91 884,-168.79 884,-168.79"/>
<polygon fill="black" stroke="black" points="880.5,-168.79 884,-178.79 887.5,-168.79 880.5,-168.79"/>
</g>
<!-- ViewComponent  -->
<g id="node14" class="node">
<title>ViewComponent </title>
<polygon fill="#fb8072" stroke="black" points="803.65,-214.8 688.35,-214.8 688.35,-178.8 803.65,-178.8 803.65,-214.8"/>
<text text-anchor="middle" x="746" y="-192.6" font-family="Times,serif" font-size="14.00">ViewComponent </text>
</g>
<!-- LayoutModule&#45;&gt;ViewComponent  -->
<g id="edge13" class="edge">
<title>LayoutModule&#45;&gt;ViewComponent </title>
<path fill="none" stroke="black" stroke-dasharray="5,2" d="M834.38,-144.8C815.03,-144.8 797.4,-144.8 797.4,-144.8 797.4,-144.8 797.4,-168.61 797.4,-168.61"/>
<polygon fill="black" stroke="black" points="793.9,-168.61 797.4,-178.61 800.9,-168.61 793.9,-168.61"/>
</g>
<!-- CardModule -->
<g id="node5" class="node">
<title>CardModule</title>
<polygon fill="#8dd3c7" stroke="black" points="1645.26,-84.8 1642.26,-88.8 1621.26,-88.8 1618.26,-84.8 1558.74,-84.8 1558.74,-48.8 1645.26,-48.8 1645.26,-84.8"/>
<text text-anchor="middle" x="1602" y="-62.6" font-family="Times,serif" font-size="14.00">CardModule</text>
</g>
<!-- CardModule&#45;&gt;LayoutModule -->
<g id="edge4" class="edge">
<title>CardModule&#45;&gt;LayoutModule</title>
<path fill="none" stroke="black" d="M1602,-84.84C1602,-106.46 1602,-139.8 1602,-139.8 1602,-139.8 943.63,-139.8 943.63,-139.8"/>
<polygon fill="black" stroke="black" points="943.63,-136.3 933.63,-139.8 943.63,-143.3 943.63,-136.3"/>
</g>
<!-- FormModule -->
<g id="node6" class="node">
<title>FormModule</title>
<polygon fill="#8dd3c7" stroke="black" points="1540.88,-84.8 1537.88,-88.8 1516.88,-88.8 1513.88,-84.8 1451.12,-84.8 1451.12,-48.8 1540.88,-48.8 1540.88,-84.8"/>
<text text-anchor="middle" x="1496" y="-62.6" font-family="Times,serif" font-size="14.00">FormModule</text>
</g>
<!-- FormModule&#45;&gt;LayoutModule -->
<g id="edge5" class="edge">
<title>FormModule&#45;&gt;LayoutModule</title>
<path fill="none" stroke="black" d="M1496,-85.02C1496,-105.17 1496,-134.8 1496,-134.8 1496,-134.8 943.82,-134.8 943.82,-134.8"/>
<polygon fill="black" stroke="black" points="943.82,-131.3 933.82,-134.8 943.82,-138.3 943.82,-131.3"/>
</g>
<!-- LoggerModule -->
<g id="node7" class="node">
<title>LoggerModule</title>
<polygon fill="#8dd3c7" stroke="black" points="1432.98,-84.8 1429.98,-88.8 1408.98,-88.8 1405.98,-84.8 1333.02,-84.8 1333.02,-48.8 1432.98,-48.8 1432.98,-84.8"/>
<text text-anchor="middle" x="1383" y="-62.6" font-family="Times,serif" font-size="14.00">LoggerModule</text>
</g>
<!-- LoggerModule&#45;&gt;LayoutModule -->
<g id="edge6" class="edge">
<title>LoggerModule&#45;&gt;LayoutModule</title>
<path fill="none" stroke="black" d="M1383,-85.02C1383,-103.63 1383,-129.8 1383,-129.8 1383,-129.8 943.67,-129.8 943.67,-129.8"/>
<polygon fill="black" stroke="black" points="943.67,-126.3 933.67,-129.8 943.67,-133.3 943.67,-126.3"/>
</g>
<!-- NavigationSidebarModule -->
<g id="node8" class="node">
<title>NavigationSidebarModule</title>
<polygon fill="#8dd3c7" stroke="black" points="1315.02,-84.8 1312.02,-88.8 1291.02,-88.8 1288.02,-84.8 1150.98,-84.8 1150.98,-48.8 1315.02,-48.8 1315.02,-84.8"/>
<text text-anchor="middle" x="1233" y="-62.6" font-family="Times,serif" font-size="14.00">NavigationSidebarModule</text>
</g>
<!-- NavigationSidebarModule&#45;&gt;LayoutModule -->
<g id="edge7" class="edge">
<title>NavigationSidebarModule&#45;&gt;LayoutModule</title>
<path fill="none" stroke="black" d="M1233,-84.83C1233,-101.86 1233,-124.8 1233,-124.8 1233,-124.8 943.63,-124.8 943.63,-124.8"/>
<polygon fill="black" stroke="black" points="943.63,-121.3 933.63,-124.8 943.63,-128.3 943.63,-121.3"/>
</g>
<!-- ResultSidebarModule -->
<g id="node9" class="node">
<title>ResultSidebarModule</title>
<polygon fill="#8dd3c7" stroke="black" points="1133.09,-84.8 1130.09,-88.8 1109.09,-88.8 1106.09,-84.8 994.91,-84.8 994.91,-48.8 1133.09,-48.8 1133.09,-84.8"/>
<text text-anchor="middle" x="1064" y="-62.6" font-family="Times,serif" font-size="14.00">ResultSidebarModule</text>
</g>
<!-- ResultSidebarModule&#45;&gt;LayoutModule -->
<g id="edge8" class="edge">
<title>ResultSidebarModule&#45;&gt;LayoutModule</title>
<path fill="none" stroke="black" d="M1057.57,-85.04C1057.57,-100.37 1057.57,-119.8 1057.57,-119.8 1057.57,-119.8 943.74,-119.8 943.74,-119.8"/>
<polygon fill="black" stroke="black" points="943.74,-116.3 933.74,-119.8 943.74,-123.3 943.74,-116.3"/>
</g>
<!-- SimpleDocumentationModule -->
<g id="node10" class="node">
<title>SimpleDocumentationModule</title>
<polygon fill="#8dd3c7" stroke="black" points="976.53,-84.8 973.53,-88.8 952.53,-88.8 949.53,-84.8 791.47,-84.8 791.47,-48.8 976.53,-48.8 976.53,-84.8"/>
<text text-anchor="middle" x="884" y="-62.6" font-family="Times,serif" font-size="14.00">SimpleDocumentationModule</text>
</g>
<!-- SimpleDocumentationModule&#45;&gt;LayoutModule -->
<g id="edge9" class="edge">
<title>SimpleDocumentationModule&#45;&gt;LayoutModule</title>
<path fill="none" stroke="black" d="M884,-84.91C884,-84.91 884,-103.79 884,-103.79"/>
<polygon fill="black" stroke="black" points="880.5,-103.79 884,-113.79 887.5,-103.79 880.5,-103.79"/>
</g>
<!-- StepbarModule -->
<g id="node11" class="node">
<title>StepbarModule</title>
<polygon fill="#8dd3c7" stroke="black" points="773.31,-84.8 770.31,-88.8 749.31,-88.8 746.31,-84.8 670.69,-84.8 670.69,-48.8 773.31,-48.8 773.31,-84.8"/>
<text text-anchor="middle" x="722" y="-62.6" font-family="Times,serif" font-size="14.00">StepbarModule</text>
</g>
<!-- StepbarModule&#45;&gt;LayoutModule -->
<g id="edge10" class="edge">
<title>StepbarModule&#45;&gt;LayoutModule</title>
<path fill="none" stroke="black" d="M730.79,-85.04C730.79,-100.37 730.79,-119.8 730.79,-119.8 730.79,-119.8 824.26,-119.8 824.26,-119.8"/>
<polygon fill="black" stroke="black" points="824.26,-123.3 834.26,-119.8 824.26,-116.3 824.26,-123.3"/>
</g>
<!-- JSatOrbLinkService -->
<g id="node15" class="node">
<title>JSatOrbLinkService</title>
<ellipse fill="#fdb462" stroke="black" cx="113" cy="-66.8" rx="89.18" ry="18"/>
<text text-anchor="middle" x="113" y="-62.6" font-family="Times,serif" font-size="14.00">JSatOrbLinkService</text>
</g>
<!-- JSatOrbLinkService&#45;&gt;LayoutModule -->
<g id="edge14" class="edge">
<title>JSatOrbLinkService&#45;&gt;LayoutModule</title>
<path fill="none" stroke="black" d="M113,-84.84C113,-106.46 113,-139.8 113,-139.8 113,-139.8 824.3,-139.8 824.3,-139.8"/>
<polygon fill="black" stroke="black" points="824.3,-143.3 834.3,-139.8 824.3,-136.3 824.3,-143.3"/>
</g>
</g>
</svg>
