<?xml version="1.0" encoding="UTF-8" standalone="no"?>
<!DOCTYPE svg PUBLIC "-//W3C//DTD SVG 1.1//EN"
 "http://www.w3.org/Graphics/SVG/1.1/DTD/svg11.dtd">
<!-- Generated by graphviz version 2.47.3 (20210619.1520)
 -->
<!-- Title: dependencies Pages: 1 -->
<svg width="592pt" height="247pt"
 viewBox="0.00 0.00 592.00 246.80" xmlns="http://www.w3.org/2000/svg" xmlns:xlink="http://www.w3.org/1999/xlink">
<g id="graph0" class="graph" transform="scale(1 1) rotate(0) translate(4 242.8)">
<title>dependencies</title>
<polygon fill="white" stroke="transparent" points="-4,4 -4,-242.8 588,-242.8 588,4 -4,4"/>
<text text-anchor="middle" x="292" y="-8.2" font-family="sans-serif" font-size="14.00">dependencies</text>
<g id="clust1" class="cluster">
<title>cluster_FormModule</title>
<polygon fill="none" stroke="black" stroke-dasharray="1,5" points="8,-32.8 8,-230.8 576,-230.8 576,-32.8 8,-32.8"/>
</g>
<g id="clust2" class="cluster">
<title>cluster_FormModule_declarations</title>
<polygon fill="none" stroke="black" points="440,-40.8 440,-92.8 568,-92.8 568,-40.8 440,-40.8"/>
</g>
<g id="clust7" class="cluster">
<title>cluster_FormModule_providers</title>
<polygon fill="none" stroke="black" points="140,-40.8 140,-92.8 432,-92.8 432,-40.8 140,-40.8"/>
</g>
<g id="clust5" class="cluster">
<title>cluster_FormModule_exports</title>
<polygon fill="none" stroke="black" points="223,-170.8 223,-222.8 355,-222.8 355,-170.8 223,-170.8"/>
</g>
<g id="clust4" class="cluster">
<title>cluster_FormModule_imports</title>
<polygon fill="none" stroke="black" points="16,-40.8 16,-92.8 132,-92.8 132,-40.8 16,-40.8"/>
</g>
<!-- FormComponent -->
<g id="node1" class="node">
<title>FormComponent</title>
<polygon fill="#ffffb3" stroke="black" points="559.67,-84.8 448.33,-84.8 448.33,-48.8 559.67,-48.8 559.67,-84.8"/>
<text text-anchor="middle" x="504" y="-62.6" font-family="Times,serif" font-size="14.00">FormComponent</text>
</g>
<!-- FormModule -->
<g id="node2" class="node">
<title>FormModule</title>
<polygon fill="#8dd3c7" stroke="black" points="333.88,-149.8 330.88,-153.8 309.88,-153.8 306.88,-149.8 244.12,-149.8 244.12,-113.8 333.88,-113.8 333.88,-149.8"/>
<text text-anchor="middle" x="289" y="-127.6" font-family="Times,serif" font-size="14.00">FormModule</text>
</g>
<!-- FormComponent&#45;&gt;FormModule -->
<g id="edge1" class="edge">
<title>FormComponent&#45;&gt;FormModule</title>
<path fill="none" stroke="black" d="M504,-84.91C504,-104.14 504,-131.8 504,-131.8 504,-131.8 344.07,-131.8 344.07,-131.8"/>
<polygon fill="black" stroke="black" points="344.07,-128.3 334.07,-131.8 344.07,-135.3 344.07,-128.3"/>
</g>
<!-- FormComponent  -->
<g id="node4" class="node">
<title>FormComponent </title>
<polygon fill="#fb8072" stroke="black" points="346.67,-214.8 231.33,-214.8 231.33,-178.8 346.67,-178.8 346.67,-214.8"/>
<text text-anchor="middle" x="289" y="-192.6" font-family="Times,serif" font-size="14.00">FormComponent </text>
</g>
<!-- FormModule&#45;&gt;FormComponent  -->
<g id="edge3" class="edge">
<title>FormModule&#45;&gt;FormComponent </title>
<path fill="none" stroke="black" stroke-dasharray="5,2" d="M289,-149.91C289,-149.91 289,-168.79 289,-168.79"/>
<polygon fill="black" stroke="black" points="285.5,-168.79 289,-178.79 292.5,-168.79 285.5,-168.79"/>
</g>
<!-- LoggerModule -->
<g id="node3" class="node">
<title>LoggerModule</title>
<polygon fill="#8dd3c7" stroke="black" points="123.98,-84.8 120.98,-88.8 99.98,-88.8 96.98,-84.8 24.02,-84.8 24.02,-48.8 123.98,-48.8 123.98,-84.8"/>
<text text-anchor="middle" x="74" y="-62.6" font-family="Times,serif" font-size="14.00">LoggerModule</text>
</g>
<!-- LoggerModule&#45;&gt;FormModule -->
<g id="edge2" class="edge">
<title>LoggerModule&#45;&gt;FormModule</title>
<path fill="none" stroke="black" d="M74,-84.91C74,-104.14 74,-131.8 74,-131.8 74,-131.8 233.93,-131.8 233.93,-131.8"/>
<polygon fill="black" stroke="black" points="233.93,-135.3 243.93,-131.8 233.93,-128.3 233.93,-135.3"/>
</g>
<!-- FormService -->
<g id="node5" class="node">
<title>FormService</title>
<ellipse fill="#fdb462" stroke="black" cx="363" cy="-66.8" rx="60.83" ry="18"/>
<text text-anchor="middle" x="363" y="-62.6" font-family="Times,serif" font-size="14.00">FormService</text>
</g>
<!-- FormService&#45;&gt;FormModule -->
<g id="edge4" class="edge">
<title>FormService&#45;&gt;FormModule</title>
<path fill="none" stroke="black" d="M318.01,-79.03C318.01,-79.03 318.01,-103.48 318.01,-103.48"/>
<polygon fill="black" stroke="black" points="314.51,-103.48 318.01,-113.48 321.51,-103.48 314.51,-103.48"/>
</g>
<!-- LoggerService -->
<g id="node6" class="node">
<title>LoggerService</title>
<ellipse fill="#fdb462" stroke="black" cx="216" cy="-66.8" rx="67.76" ry="18"/>
<text text-anchor="middle" x="216" y="-62.6" font-family="Times,serif" font-size="14.00">LoggerService</text>
</g>
<!-- LoggerService&#45;&gt;FormModule -->
<g id="edge5" class="edge">
<title>LoggerService&#45;&gt;FormModule</title>
<path fill="none" stroke="black" d="M263.97,-79.64C263.97,-79.64 263.97,-103.32 263.97,-103.32"/>
<polygon fill="black" stroke="black" points="260.47,-103.32 263.97,-113.32 267.47,-103.32 260.47,-103.32"/>
</g>
</g>
</svg>
