<?xml version="1.0" encoding="UTF-8" standalone="no"?>
<!DOCTYPE svg PUBLIC "-//W3C//DTD SVG 1.1//EN"
 "http://www.w3.org/Graphics/SVG/1.1/DTD/svg11.dtd">
<!-- Generated by graphviz version 2.47.3 (20210619.1520)
 -->
<!-- Title: dependencies Pages: 1 -->
<svg width="600pt" height="247pt"
 viewBox="0.00 0.00 600.00 246.80" xmlns="http://www.w3.org/2000/svg" xmlns:xlink="http://www.w3.org/1999/xlink">
<g id="graph0" class="graph" transform="scale(1 1) rotate(0) translate(4 242.8)">
<title>dependencies</title>
<polygon fill="white" stroke="transparent" points="-4,4 -4,-242.8 596,-242.8 596,4 -4,4"/>
<text text-anchor="middle" x="296" y="-8.2" font-family="sans-serif" font-size="14.00">dependencies</text>
<g id="clust1" class="cluster">
<title>cluster_SynthesisModule</title>
<polygon fill="none" stroke="black" stroke-dasharray="1,5" points="8,-32.8 8,-230.8 584,-230.8 584,-32.8 8,-32.8"/>
</g>
<g id="clust2" class="cluster">
<title>cluster_SynthesisModule_declarations</title>
<polygon fill="none" stroke="black" points="424,-40.8 424,-92.8 576,-92.8 576,-40.8 424,-40.8"/>
</g>
<g id="clust4" class="cluster">
<title>cluster_SynthesisModule_imports</title>
<polygon fill="none" stroke="black" points="16,-40.8 16,-92.8 416,-92.8 416,-40.8 16,-40.8"/>
</g>
<g id="clust5" class="cluster">
<title>cluster_SynthesisModule_exports</title>
<polygon fill="none" stroke="black" points="232,-170.8 232,-222.8 386,-222.8 386,-170.8 232,-170.8"/>
</g>
<!-- SynthesisComponent -->
<g id="node1" class="node">
<title>SynthesisComponent</title>
<polygon fill="#ffffb3" stroke="black" points="567.5,-84.8 432.5,-84.8 432.5,-48.8 567.5,-48.8 567.5,-84.8"/>
<text text-anchor="middle" x="500" y="-62.6" font-family="Times,serif" font-size="14.00">SynthesisComponent</text>
</g>
<!-- SynthesisModule -->
<g id="node2" class="node">
<title>SynthesisModule</title>
<polygon fill="#8dd3c7" stroke="black" points="365.72,-149.8 362.72,-153.8 341.72,-153.8 338.72,-149.8 252.28,-149.8 252.28,-113.8 365.72,-113.8 365.72,-149.8"/>
<text text-anchor="middle" x="309" y="-127.6" font-family="Times,serif" font-size="14.00">SynthesisModule</text>
</g>
<!-- SynthesisComponent&#45;&gt;SynthesisModule -->
<g id="edge1" class="edge">
<title>SynthesisComponent&#45;&gt;SynthesisModule</title>
<path fill="none" stroke="black" d="M500,-84.91C500,-104.14 500,-131.8 500,-131.8 500,-131.8 375.79,-131.8 375.79,-131.8"/>
<polygon fill="black" stroke="black" points="375.79,-128.3 365.79,-131.8 375.79,-135.3 375.79,-128.3"/>
</g>
<!-- SynthesisComponent  -->
<g id="node6" class="node">
<title>SynthesisComponent </title>
<polygon fill="#fb8072" stroke="black" points="378,-214.8 240,-214.8 240,-178.8 378,-178.8 378,-214.8"/>
<text text-anchor="middle" x="309" y="-192.6" font-family="Times,serif" font-size="14.00">SynthesisComponent </text>
</g>
<!-- SynthesisModule&#45;&gt;SynthesisComponent  -->
<g id="edge5" class="edge">
<title>SynthesisModule&#45;&gt;SynthesisComponent </title>
<path fill="none" stroke="black" stroke-dasharray="5,2" d="M309,-149.91C309,-149.91 309,-168.79 309,-168.79"/>
<polygon fill="black" stroke="black" points="305.5,-168.79 309,-178.79 312.5,-168.79 305.5,-168.79"/>
</g>
<!-- CardModule -->
<g id="node3" class="node">
<title>CardModule</title>
<polygon fill="#8dd3c7" stroke="black" points="408.26,-84.8 405.26,-88.8 384.26,-88.8 381.26,-84.8 321.74,-84.8 321.74,-48.8 408.26,-48.8 408.26,-84.8"/>
<text text-anchor="middle" x="365" y="-62.6" font-family="Times,serif" font-size="14.00">CardModule</text>
</g>
<!-- CardModule&#45;&gt;SynthesisModule -->
<g id="edge2" class="edge">
<title>CardModule&#45;&gt;SynthesisModule</title>
<path fill="none" stroke="black" d="M343.61,-84.91C343.61,-84.91 343.61,-103.79 343.61,-103.79"/>
<polygon fill="black" stroke="black" points="340.11,-103.79 343.61,-113.79 347.11,-103.79 340.11,-103.79"/>
</g>
<!-- LoggerModule -->
<g id="node4" class="node">
<title>LoggerModule</title>
<polygon fill="#8dd3c7" stroke="black" points="303.98,-84.8 300.98,-88.8 279.98,-88.8 276.98,-84.8 204.02,-84.8 204.02,-48.8 303.98,-48.8 303.98,-84.8"/>
<text text-anchor="middle" x="254" y="-62.6" font-family="Times,serif" font-size="14.00">LoggerModule</text>
</g>
<!-- LoggerModule&#45;&gt;SynthesisModule -->
<g id="edge3" class="edge">
<title>LoggerModule&#45;&gt;SynthesisModule</title>
<path fill="none" stroke="black" d="M278.19,-84.91C278.19,-84.91 278.19,-103.79 278.19,-103.79"/>
<polygon fill="black" stroke="black" points="274.69,-103.79 278.19,-113.79 281.69,-103.79 274.69,-103.79"/>
</g>
<!-- SyntheticDrawingModule -->
<g id="node5" class="node">
<title>SyntheticDrawingModule</title>
<polygon fill="#8dd3c7" stroke="black" points="185.91,-84.8 182.91,-88.8 161.91,-88.8 158.91,-84.8 24.09,-84.8 24.09,-48.8 185.91,-48.8 185.91,-84.8"/>
<text text-anchor="middle" x="105" y="-62.6" font-family="Times,serif" font-size="14.00">SyntheticDrawingModule</text>
</g>
<!-- SyntheticDrawingModule&#45;&gt;SynthesisModule -->
<g id="edge4" class="edge">
<title>SyntheticDrawingModule&#45;&gt;SynthesisModule</title>
<path fill="none" stroke="black" d="M105,-84.91C105,-104.14 105,-131.8 105,-131.8 105,-131.8 242.17,-131.8 242.17,-131.8"/>
<polygon fill="black" stroke="black" points="242.17,-135.3 252.17,-131.8 242.17,-128.3 242.17,-135.3"/>
</g>
</g>
</svg>
