<?xml version="1.0" encoding="utf-8" standalone="no"?>
<!DOCTYPE svg PUBLIC "-//W3C//DTD SVG 1.1//EN"
  "http://www.w3.org/Graphics/SVG/1.1/DTD/svg11.dtd">
<!-- Created with matplotlib (https://matplotlib.org/) -->
<svg height="345.6pt" version="1.1" viewBox="0 0 460.8 345.6" width="460.8pt" xmlns="http://www.w3.org/2000/svg" xmlns:xlink="http://www.w3.org/1999/xlink">
 <metadata>
  <rdf:RDF xmlns:cc="http://creativecommons.org/ns#" xmlns:dc="http://purl.org/dc/elements/1.1/" xmlns:rdf="http://www.w3.org/1999/02/22-rdf-syntax-ns#">
   <cc:Work>
    <dc:type rdf:resource="http://purl.org/dc/dcmitype/StillImage"/>
    <dc:date>2021-05-25T09:22:39.092468</dc:date>
    <dc:format>image/svg+xml</dc:format>
    <dc:creator>
     <cc:Agent>
      <dc:title>Matplotlib v3.3.4, https://matplotlib.org/</dc:title>
     </cc:Agent>
    </dc:creator>
   </cc:Work>
  </rdf:RDF>
 </metadata>
 <defs>
  <style type="text/css">*{stroke-linecap:butt;stroke-linejoin:round;}</style>
 </defs>
 <g id="figure_1">
  <g id="patch_1">
   <path d="M 0 345.6 
L 460.8 345.6 
L 460.8 0 
L 0 0 
z
" style="fill:#ffffff;"/>
  </g>
  <g id="axes_1">
   <g id="patch_2">
    <path d="M 57.6 307.584 
L 343.296 307.584 
L 343.296 41.472 
L 57.6 41.472 
z
" style="fill:#ffffff;"/>
   </g>
   <g id="matplotlib.axis_1">
    <g id="xtick_1">
     <g id="line2d_1">
      <defs>
       <path d="M 0 0 
L 0 3.5 
" id="mf21eb41e03" style="stroke:#000000;stroke-width:0.8;"/>
      </defs>
      <g>
       <use style="stroke:#000000;stroke-width:0.8;" x="70.326198" xlink:href="#mf21eb41e03" y="307.584"/>
      </g>
     </g>
     <g id="text_1">
      <!-- 0 -->
      <g transform="translate(67.144948 322.182437)scale(0.1 -0.1)">
       <defs>
        <path d="M 31.78125 66.40625 
Q 24.171875 66.40625 20.328125 58.90625 
Q 16.5 51.421875 16.5 36.375 
Q 16.5 21.390625 20.328125 13.890625 
Q 24.171875 6.390625 31.78125 6.390625 
Q 39.453125 6.390625 43.28125 13.890625 
Q 47.125 21.390625 47.125 36.375 
Q 47.125 51.421875 43.28125 58.90625 
Q 39.453125 66.40625 31.78125 66.40625 
z
M 31.78125 74.21875 
Q 44.046875 74.21875 50.515625 64.515625 
Q 56.984375 54.828125 56.984375 36.375 
Q 56.984375 17.96875 50.515625 8.265625 
Q 44.046875 -1.421875 31.78125 -1.421875 
Q 19.53125 -1.421875 13.0625 8.265625 
Q 6.59375 17.96875 6.59375 36.375 
Q 6.59375 54.828125 13.0625 64.515625 
Q 19.53125 74.21875 31.78125 74.21875 
z
" id="DejaVuSans-48"/>
       </defs>
       <use xlink:href="#DejaVuSans-48"/>
      </g>
     </g>
    </g>
    <g id="xtick_2">
     <g id="line2d_2">
      <g>
       <use style="stroke:#000000;stroke-width:0.8;" x="122.322922" xlink:href="#mf21eb41e03" y="307.584"/>
      </g>
     </g>
     <g id="text_2">
      <!-- 20 -->
      <g transform="translate(115.960422 322.182437)scale(0.1 -0.1)">
       <defs>
        <path d="M 19.1875 8.296875 
L 53.609375 8.296875 
L 53.609375 0 
L 7.328125 0 
L 7.328125 8.296875 
Q 12.9375 14.109375 22.625 23.890625 
Q 32.328125 33.6875 34.8125 36.53125 
Q 39.546875 41.84375 41.421875 45.53125 
Q 43.3125 49.21875 43.3125 52.78125 
Q 43.3125 58.59375 39.234375 62.25 
Q 35.15625 65.921875 28.609375 65.921875 
Q 23.96875 65.921875 18.8125 64.3125 
Q 13.671875 62.703125 7.8125 59.421875 
L 7.8125 69.390625 
Q 13.765625 71.78125 18.9375 73 
Q 24.125 74.21875 28.421875 74.21875 
Q 39.75 74.21875 46.484375 68.546875 
Q 53.21875 62.890625 53.21875 53.421875 
Q 53.21875 48.921875 51.53125 44.890625 
Q 49.859375 40.875 45.40625 35.40625 
Q 44.1875 33.984375 37.640625 27.21875 
Q 31.109375 20.453125 19.1875 8.296875 
z
" id="DejaVuSans-50"/>
       </defs>
       <use xlink:href="#DejaVuSans-50"/>
       <use x="63.623047" xlink:href="#DejaVuSans-48"/>
      </g>
     </g>
    </g>
    <g id="xtick_3">
     <g id="line2d_3">
      <g>
       <use style="stroke:#000000;stroke-width:0.8;" x="174.319646" xlink:href="#mf21eb41e03" y="307.584"/>
      </g>
     </g>
     <g id="text_3">
      <!-- 40 -->
      <g transform="translate(167.957146 322.182437)scale(0.1 -0.1)">
       <defs>
        <path d="M 37.796875 64.3125 
L 12.890625 25.390625 
L 37.796875 25.390625 
z
M 35.203125 72.90625 
L 47.609375 72.90625 
L 47.609375 25.390625 
L 58.015625 25.390625 
L 58.015625 17.1875 
L 47.609375 17.1875 
L 47.609375 0 
L 37.796875 0 
L 37.796875 17.1875 
L 4.890625 17.1875 
L 4.890625 26.703125 
z
" id="DejaVuSans-52"/>
       </defs>
       <use xlink:href="#DejaVuSans-52"/>
       <use x="63.623047" xlink:href="#DejaVuSans-48"/>
      </g>
     </g>
    </g>
    <g id="xtick_4">
     <g id="line2d_4">
      <g>
       <use style="stroke:#000000;stroke-width:0.8;" x="226.31637" xlink:href="#mf21eb41e03" y="307.584"/>
      </g>
     </g>
     <g id="text_4">
      <!-- 60 -->
      <g transform="translate(219.95387 322.182437)scale(0.1 -0.1)">
       <defs>
        <path d="M 33.015625 40.375 
Q 26.375 40.375 22.484375 35.828125 
Q 18.609375 31.296875 18.609375 23.390625 
Q 18.609375 15.53125 22.484375 10.953125 
Q 26.375 6.390625 33.015625 6.390625 
Q 39.65625 6.390625 43.53125 10.953125 
Q 47.40625 15.53125 47.40625 23.390625 
Q 47.40625 31.296875 43.53125 35.828125 
Q 39.65625 40.375 33.015625 40.375 
z
M 52.59375 71.296875 
L 52.59375 62.3125 
Q 48.875 64.0625 45.09375 64.984375 
Q 41.3125 65.921875 37.59375 65.921875 
Q 27.828125 65.921875 22.671875 59.328125 
Q 17.53125 52.734375 16.796875 39.40625 
Q 19.671875 43.65625 24.015625 45.921875 
Q 28.375 48.1875 33.59375 48.1875 
Q 44.578125 48.1875 50.953125 41.515625 
Q 57.328125 34.859375 57.328125 23.390625 
Q 57.328125 12.15625 50.6875 5.359375 
Q 44.046875 -1.421875 33.015625 -1.421875 
Q 20.359375 -1.421875 13.671875 8.265625 
Q 6.984375 17.96875 6.984375 36.375 
Q 6.984375 53.65625 15.1875 63.9375 
Q 23.390625 74.21875 37.203125 74.21875 
Q 40.921875 74.21875 44.703125 73.484375 
Q 48.484375 72.75 52.59375 71.296875 
z
" id="DejaVuSans-54"/>
       </defs>
       <use xlink:href="#DejaVuSans-54"/>
       <use x="63.623047" xlink:href="#DejaVuSans-48"/>
      </g>
     </g>
    </g>
    <g id="xtick_5">
     <g id="line2d_5">
      <g>
       <use style="stroke:#000000;stroke-width:0.8;" x="278.313094" xlink:href="#mf21eb41e03" y="307.584"/>
      </g>
     </g>
     <g id="text_5">
      <!-- 80 -->
      <g transform="translate(271.950594 322.182437)scale(0.1 -0.1)">
       <defs>
        <path d="M 31.78125 34.625 
Q 24.75 34.625 20.71875 30.859375 
Q 16.703125 27.09375 16.703125 20.515625 
Q 16.703125 13.921875 20.71875 10.15625 
Q 24.75 6.390625 31.78125 6.390625 
Q 38.8125 6.390625 42.859375 10.171875 
Q 46.921875 13.96875 46.921875 20.515625 
Q 46.921875 27.09375 42.890625 30.859375 
Q 38.875 34.625 31.78125 34.625 
z
M 21.921875 38.8125 
Q 15.578125 40.375 12.03125 44.71875 
Q 8.5 49.078125 8.5 55.328125 
Q 8.5 64.0625 14.71875 69.140625 
Q 20.953125 74.21875 31.78125 74.21875 
Q 42.671875 74.21875 48.875 69.140625 
Q 55.078125 64.0625 55.078125 55.328125 
Q 55.078125 49.078125 51.53125 44.71875 
Q 48 40.375 41.703125 38.8125 
Q 48.828125 37.15625 52.796875 32.3125 
Q 56.78125 27.484375 56.78125 20.515625 
Q 56.78125 9.90625 50.3125 4.234375 
Q 43.84375 -1.421875 31.78125 -1.421875 
Q 19.734375 -1.421875 13.25 4.234375 
Q 6.78125 9.90625 6.78125 20.515625 
Q 6.78125 27.484375 10.78125 32.3125 
Q 14.796875 37.15625 21.921875 38.8125 
z
M 18.3125 54.390625 
Q 18.3125 48.734375 21.84375 45.5625 
Q 25.390625 42.390625 31.78125 42.390625 
Q 38.140625 42.390625 41.71875 45.5625 
Q 45.3125 48.734375 45.3125 54.390625 
Q 45.3125 60.0625 41.71875 63.234375 
Q 38.140625 66.40625 31.78125 66.40625 
Q 25.390625 66.40625 21.84375 63.234375 
Q 18.3125 60.0625 18.3125 54.390625 
z
" id="DejaVuSans-56"/>
       </defs>
       <use xlink:href="#DejaVuSans-56"/>
       <use x="63.623047" xlink:href="#DejaVuSans-48"/>
      </g>
     </g>
    </g>
    <g id="xtick_6">
     <g id="line2d_6">
      <g>
       <use style="stroke:#000000;stroke-width:0.8;" x="330.309818" xlink:href="#mf21eb41e03" y="307.584"/>
      </g>
     </g>
     <g id="text_6">
      <!-- 100 -->
      <g transform="translate(320.766068 322.182437)scale(0.1 -0.1)">
       <defs>
        <path d="M 12.40625 8.296875 
L 28.515625 8.296875 
L 28.515625 63.921875 
L 10.984375 60.40625 
L 10.984375 69.390625 
L 28.421875 72.90625 
L 38.28125 72.90625 
L 38.28125 8.296875 
L 54.390625 8.296875 
L 54.390625 0 
L 12.40625 0 
z
" id="DejaVuSans-49"/>
       </defs>
       <use xlink:href="#DejaVuSans-49"/>
       <use x="63.623047" xlink:href="#DejaVuSans-48"/>
       <use x="127.246094" xlink:href="#DejaVuSans-48"/>
      </g>
     </g>
    </g>
    <g id="text_7">
     <!-- Distance (km) -->
     <g transform="translate(165.32925 335.860562)scale(0.1 -0.1)">
      <defs>
       <path d="M 19.671875 64.796875 
L 19.671875 8.109375 
L 31.59375 8.109375 
Q 46.6875 8.109375 53.6875 14.9375 
Q 60.6875 21.78125 60.6875 36.53125 
Q 60.6875 51.171875 53.6875 57.984375 
Q 46.6875 64.796875 31.59375 64.796875 
z
M 9.8125 72.90625 
L 30.078125 72.90625 
Q 51.265625 72.90625 61.171875 64.09375 
Q 71.09375 55.28125 71.09375 36.53125 
Q 71.09375 17.671875 61.125 8.828125 
Q 51.171875 0 30.078125 0 
L 9.8125 0 
z
" id="DejaVuSans-68"/>
       <path d="M 9.421875 54.6875 
L 18.40625 54.6875 
L 18.40625 0 
L 9.421875 0 
z
M 9.421875 75.984375 
L 18.40625 75.984375 
L 18.40625 64.59375 
L 9.421875 64.59375 
z
" id="DejaVuSans-105"/>
       <path d="M 44.28125 53.078125 
L 44.28125 44.578125 
Q 40.484375 46.53125 36.375 47.5 
Q 32.28125 48.484375 27.875 48.484375 
Q 21.1875 48.484375 17.84375 46.4375 
Q 14.5 44.390625 14.5 40.28125 
Q 14.5 37.15625 16.890625 35.375 
Q 19.28125 33.59375 26.515625 31.984375 
L 29.59375 31.296875 
Q 39.15625 29.25 43.1875 25.515625 
Q 47.21875 21.78125 47.21875 15.09375 
Q 47.21875 7.46875 41.1875 3.015625 
Q 35.15625 -1.421875 24.609375 -1.421875 
Q 20.21875 -1.421875 15.453125 -0.5625 
Q 10.6875 0.296875 5.421875 2 
L 5.421875 11.28125 
Q 10.40625 8.6875 15.234375 7.390625 
Q 20.0625 6.109375 24.8125 6.109375 
Q 31.15625 6.109375 34.5625 8.28125 
Q 37.984375 10.453125 37.984375 14.40625 
Q 37.984375 18.0625 35.515625 20.015625 
Q 33.0625 21.96875 24.703125 23.78125 
L 21.578125 24.515625 
Q 13.234375 26.265625 9.515625 29.90625 
Q 5.8125 33.546875 5.8125 39.890625 
Q 5.8125 47.609375 11.28125 51.796875 
Q 16.75 56 26.8125 56 
Q 31.78125 56 36.171875 55.265625 
Q 40.578125 54.546875 44.28125 53.078125 
z
" id="DejaVuSans-115"/>
       <path d="M 18.3125 70.21875 
L 18.3125 54.6875 
L 36.8125 54.6875 
L 36.8125 47.703125 
L 18.3125 47.703125 
L 18.3125 18.015625 
Q 18.3125 11.328125 20.140625 9.421875 
Q 21.96875 7.515625 27.59375 7.515625 
L 36.8125 7.515625 
L 36.8125 0 
L 27.59375 0 
Q 17.1875 0 13.234375 3.875 
Q 9.28125 7.765625 9.28125 18.015625 
L 9.28125 47.703125 
L 2.6875 47.703125 
L 2.6875 54.6875 
L 9.28125 54.6875 
L 9.28125 70.21875 
z
" id="DejaVuSans-116"/>
       <path d="M 34.28125 27.484375 
Q 23.390625 27.484375 19.1875 25 
Q 14.984375 22.515625 14.984375 16.5 
Q 14.984375 11.71875 18.140625 8.90625 
Q 21.296875 6.109375 26.703125 6.109375 
Q 34.1875 6.109375 38.703125 11.40625 
Q 43.21875 16.703125 43.21875 25.484375 
L 43.21875 27.484375 
z
M 52.203125 31.203125 
L 52.203125 0 
L 43.21875 0 
L 43.21875 8.296875 
Q 40.140625 3.328125 35.546875 0.953125 
Q 30.953125 -1.421875 24.3125 -1.421875 
Q 15.921875 -1.421875 10.953125 3.296875 
Q 6 8.015625 6 15.921875 
Q 6 25.140625 12.171875 29.828125 
Q 18.359375 34.515625 30.609375 34.515625 
L 43.21875 34.515625 
L 43.21875 35.40625 
Q 43.21875 41.609375 39.140625 45 
Q 35.0625 48.390625 27.6875 48.390625 
Q 23 48.390625 18.546875 47.265625 
Q 14.109375 46.140625 10.015625 43.890625 
L 10.015625 52.203125 
Q 14.9375 54.109375 19.578125 55.046875 
Q 24.21875 56 28.609375 56 
Q 40.484375 56 46.34375 49.84375 
Q 52.203125 43.703125 52.203125 31.203125 
z
" id="DejaVuSans-97"/>
       <path d="M 54.890625 33.015625 
L 54.890625 0 
L 45.90625 0 
L 45.90625 32.71875 
Q 45.90625 40.484375 42.875 44.328125 
Q 39.84375 48.1875 33.796875 48.1875 
Q 26.515625 48.1875 22.3125 43.546875 
Q 18.109375 38.921875 18.109375 30.90625 
L 18.109375 0 
L 9.078125 0 
L 9.078125 54.6875 
L 18.109375 54.6875 
L 18.109375 46.1875 
Q 21.34375 51.125 25.703125 53.5625 
Q 30.078125 56 35.796875 56 
Q 45.21875 56 50.046875 50.171875 
Q 54.890625 44.34375 54.890625 33.015625 
z
" id="DejaVuSans-110"/>
       <path d="M 48.78125 52.59375 
L 48.78125 44.1875 
Q 44.96875 46.296875 41.140625 47.34375 
Q 37.3125 48.390625 33.40625 48.390625 
Q 24.65625 48.390625 19.8125 42.84375 
Q 14.984375 37.3125 14.984375 27.296875 
Q 14.984375 17.28125 19.8125 11.734375 
Q 24.65625 6.203125 33.40625 6.203125 
Q 37.3125 6.203125 41.140625 7.25 
Q 44.96875 8.296875 48.78125 10.40625 
L 48.78125 2.09375 
Q 45.015625 0.34375 40.984375 -0.53125 
Q 36.96875 -1.421875 32.421875 -1.421875 
Q 20.0625 -1.421875 12.78125 6.34375 
Q 5.515625 14.109375 5.515625 27.296875 
Q 5.515625 40.671875 12.859375 48.328125 
Q 20.21875 56 33.015625 56 
Q 37.15625 56 41.109375 55.140625 
Q 45.0625 54.296875 48.78125 52.59375 
z
" id="DejaVuSans-99"/>
       <path d="M 56.203125 29.59375 
L 56.203125 25.203125 
L 14.890625 25.203125 
Q 15.484375 15.921875 20.484375 11.0625 
Q 25.484375 6.203125 34.421875 6.203125 
Q 39.59375 6.203125 44.453125 7.46875 
Q 49.3125 8.734375 54.109375 11.28125 
L 54.109375 2.78125 
Q 49.265625 0.734375 44.1875 -0.34375 
Q 39.109375 -1.421875 33.890625 -1.421875 
Q 20.796875 -1.421875 13.15625 6.1875 
Q 5.515625 13.8125 5.515625 26.8125 
Q 5.515625 40.234375 12.765625 48.109375 
Q 20.015625 56 32.328125 56 
Q 43.359375 56 49.78125 48.890625 
Q 56.203125 41.796875 56.203125 29.59375 
z
M 47.21875 32.234375 
Q 47.125 39.59375 43.09375 43.984375 
Q 39.0625 48.390625 32.421875 48.390625 
Q 24.90625 48.390625 20.390625 44.140625 
Q 15.875 39.890625 15.1875 32.171875 
z
" id="DejaVuSans-101"/>
       <path id="DejaVuSans-32"/>
       <path d="M 31 75.875 
Q 24.46875 64.65625 21.28125 53.65625 
Q 18.109375 42.671875 18.109375 31.390625 
Q 18.109375 20.125 21.3125 9.0625 
Q 24.515625 -2 31 -13.1875 
L 23.1875 -13.1875 
Q 15.875 -1.703125 12.234375 9.375 
Q 8.59375 20.453125 8.59375 31.390625 
Q 8.59375 42.28125 12.203125 53.3125 
Q 15.828125 64.359375 23.1875 75.875 
z
" id="DejaVuSans-40"/>
       <path d="M 9.078125 75.984375 
L 18.109375 75.984375 
L 18.109375 31.109375 
L 44.921875 54.6875 
L 56.390625 54.6875 
L 27.390625 29.109375 
L 57.625 0 
L 45.90625 0 
L 18.109375 26.703125 
L 18.109375 0 
L 9.078125 0 
z
" id="DejaVuSans-107"/>
       <path d="M 52 44.1875 
Q 55.375 50.25 60.0625 53.125 
Q 64.75 56 71.09375 56 
Q 79.640625 56 84.28125 50.015625 
Q 88.921875 44.046875 88.921875 33.015625 
L 88.921875 0 
L 79.890625 0 
L 79.890625 32.71875 
Q 79.890625 40.578125 77.09375 44.375 
Q 74.3125 48.1875 68.609375 48.1875 
Q 61.625 48.1875 57.5625 43.546875 
Q 53.515625 38.921875 53.515625 30.90625 
L 53.515625 0 
L 44.484375 0 
L 44.484375 32.71875 
Q 44.484375 40.625 41.703125 44.40625 
Q 38.921875 48.1875 33.109375 48.1875 
Q 26.21875 48.1875 22.15625 43.53125 
Q 18.109375 38.875 18.109375 30.90625 
L 18.109375 0 
L 9.078125 0 
L 9.078125 54.6875 
L 18.109375 54.6875 
L 18.109375 46.1875 
Q 21.1875 51.21875 25.484375 53.609375 
Q 29.78125 56 35.6875 56 
Q 41.65625 56 45.828125 52.96875 
Q 50 49.953125 52 44.1875 
z
" id="DejaVuSans-109"/>
       <path d="M 8.015625 75.875 
L 15.828125 75.875 
Q 23.140625 64.359375 26.78125 53.3125 
Q 30.421875 42.28125 30.421875 31.390625 
Q 30.421875 20.453125 26.78125 9.375 
Q 23.140625 -1.703125 15.828125 -13.1875 
L 8.015625 -13.1875 
Q 14.5 -2 17.703125 9.0625 
Q 20.90625 20.125 20.90625 31.390625 
Q 20.90625 42.671875 17.703125 53.65625 
Q 14.5 64.65625 8.015625 75.875 
z
" id="DejaVuSans-41"/>
      </defs>
      <use xlink:href="#DejaVuSans-68"/>
      <use x="77.001953" xlink:href="#DejaVuSans-105"/>
      <use x="104.785156" xlink:href="#DejaVuSans-115"/>
      <use x="156.884766" xlink:href="#DejaVuSans-116"/>
      <use x="196.09375" xlink:href="#DejaVuSans-97"/>
      <use x="257.373047" xlink:href="#DejaVuSans-110"/>
      <use x="320.751953" xlink:href="#DejaVuSans-99"/>
      <use x="375.732422" xlink:href="#DejaVuSans-101"/>
      <use x="437.255859" xlink:href="#DejaVuSans-32"/>
      <use x="469.042969" xlink:href="#DejaVuSans-40"/>
      <use x="508.056641" xlink:href="#DejaVuSans-107"/>
      <use x="565.966797" xlink:href="#DejaVuSans-109"/>
      <use x="663.378906" xlink:href="#DejaVuSans-41"/>
     </g>
    </g>
   </g>
   <g id="matplotlib.axis_2">
    <g id="ytick_1">
     <g id="line2d_7">
      <defs>
       <path d="M 0 0 
L -3.5 0 
" id="m1168a7c85b" style="stroke:#000000;stroke-width:0.8;"/>
      </defs>
      <g>
       <use style="stroke:#000000;stroke-width:0.8;" x="57.6" xlink:href="#m1168a7c85b" y="301.068256"/>
      </g>
     </g>
     <g id="text_8">
      <!-- 60 -->
      <g transform="translate(37.875 304.867475)scale(0.1 -0.1)">
       <use xlink:href="#DejaVuSans-54"/>
       <use x="63.623047" xlink:href="#DejaVuSans-48"/>
      </g>
     </g>
    </g>
    <g id="ytick_2">
     <g id="line2d_8">
      <g>
       <use style="stroke:#000000;stroke-width:0.8;" x="57.6" xlink:href="#m1168a7c85b" y="244.821264"/>
      </g>
     </g>
     <g id="text_9">
      <!-- 80 -->
      <g transform="translate(37.875 248.620483)scale(0.1 -0.1)">
       <use xlink:href="#DejaVuSans-56"/>
       <use x="63.623047" xlink:href="#DejaVuSans-48"/>
      </g>
     </g>
    </g>
    <g id="ytick_3">
     <g id="line2d_9">
      <g>
       <use style="stroke:#000000;stroke-width:0.8;" x="57.6" xlink:href="#m1168a7c85b" y="188.574272"/>
      </g>
     </g>
     <g id="text_10">
      <!-- 100 -->
      <g transform="translate(31.5125 192.373491)scale(0.1 -0.1)">
       <use xlink:href="#DejaVuSans-49"/>
       <use x="63.623047" xlink:href="#DejaVuSans-48"/>
       <use x="127.246094" xlink:href="#DejaVuSans-48"/>
      </g>
     </g>
    </g>
    <g id="ytick_4">
     <g id="line2d_10">
      <g>
       <use style="stroke:#000000;stroke-width:0.8;" x="57.6" xlink:href="#m1168a7c85b" y="132.32728"/>
      </g>
     </g>
     <g id="text_11">
      <!-- 120 -->
      <g transform="translate(31.5125 136.126499)scale(0.1 -0.1)">
       <use xlink:href="#DejaVuSans-49"/>
       <use x="63.623047" xlink:href="#DejaVuSans-50"/>
       <use x="127.246094" xlink:href="#DejaVuSans-48"/>
      </g>
     </g>
    </g>
    <g id="ytick_5">
     <g id="line2d_11">
      <g>
       <use style="stroke:#000000;stroke-width:0.8;" x="57.6" xlink:href="#m1168a7c85b" y="76.080288"/>
      </g>
     </g>
     <g id="text_12">
      <!-- 140 -->
      <g transform="translate(31.5125 79.879507)scale(0.1 -0.1)">
       <use xlink:href="#DejaVuSans-49"/>
       <use x="63.623047" xlink:href="#DejaVuSans-52"/>
       <use x="127.246094" xlink:href="#DejaVuSans-48"/>
      </g>
     </g>
    </g>
    <g id="text_13">
     <!-- Loss (dB) -->
     <g transform="translate(25.432812 197.5905)rotate(-90)scale(0.1 -0.1)">
      <defs>
       <path d="M 9.8125 72.90625 
L 19.671875 72.90625 
L 19.671875 8.296875 
L 55.171875 8.296875 
L 55.171875 0 
L 9.8125 0 
z
" id="DejaVuSans-76"/>
       <path d="M 30.609375 48.390625 
Q 23.390625 48.390625 19.1875 42.75 
Q 14.984375 37.109375 14.984375 27.296875 
Q 14.984375 17.484375 19.15625 11.84375 
Q 23.34375 6.203125 30.609375 6.203125 
Q 37.796875 6.203125 41.984375 11.859375 
Q 46.1875 17.53125 46.1875 27.296875 
Q 46.1875 37.015625 41.984375 42.703125 
Q 37.796875 48.390625 30.609375 48.390625 
z
M 30.609375 56 
Q 42.328125 56 49.015625 48.375 
Q 55.71875 40.765625 55.71875 27.296875 
Q 55.71875 13.875 49.015625 6.21875 
Q 42.328125 -1.421875 30.609375 -1.421875 
Q 18.84375 -1.421875 12.171875 6.21875 
Q 5.515625 13.875 5.515625 27.296875 
Q 5.515625 40.765625 12.171875 48.375 
Q 18.84375 56 30.609375 56 
z
" id="DejaVuSans-111"/>
       <path d="M 45.40625 46.390625 
L 45.40625 75.984375 
L 54.390625 75.984375 
L 54.390625 0 
L 45.40625 0 
L 45.40625 8.203125 
Q 42.578125 3.328125 38.25 0.953125 
Q 33.9375 -1.421875 27.875 -1.421875 
Q 17.96875 -1.421875 11.734375 6.484375 
Q 5.515625 14.40625 5.515625 27.296875 
Q 5.515625 40.1875 11.734375 48.09375 
Q 17.96875 56 27.875 56 
Q 33.9375 56 38.25 53.625 
Q 42.578125 51.265625 45.40625 46.390625 
z
M 14.796875 27.296875 
Q 14.796875 17.390625 18.875 11.75 
Q 22.953125 6.109375 30.078125 6.109375 
Q 37.203125 6.109375 41.296875 11.75 
Q 45.40625 17.390625 45.40625 27.296875 
Q 45.40625 37.203125 41.296875 42.84375 
Q 37.203125 48.484375 30.078125 48.484375 
Q 22.953125 48.484375 18.875 42.84375 
Q 14.796875 37.203125 14.796875 27.296875 
z
" id="DejaVuSans-100"/>
       <path d="M 19.671875 34.8125 
L 19.671875 8.109375 
L 35.5 8.109375 
Q 43.453125 8.109375 47.28125 11.40625 
Q 51.125 14.703125 51.125 21.484375 
Q 51.125 28.328125 47.28125 31.5625 
Q 43.453125 34.8125 35.5 34.8125 
z
M 19.671875 64.796875 
L 19.671875 42.828125 
L 34.28125 42.828125 
Q 41.5 42.828125 45.03125 45.53125 
Q 48.578125 48.25 48.578125 53.8125 
Q 48.578125 59.328125 45.03125 62.0625 
Q 41.5 64.796875 34.28125 64.796875 
z
M 9.8125 72.90625 
L 35.015625 72.90625 
Q 46.296875 72.90625 52.390625 68.21875 
Q 58.5 63.53125 58.5 54.890625 
Q 58.5 48.1875 55.375 44.234375 
Q 52.25 40.28125 46.1875 39.3125 
Q 53.46875 37.75 57.5 32.78125 
Q 61.53125 27.828125 61.53125 20.40625 
Q 61.53125 10.640625 54.890625 5.3125 
Q 48.25 0 35.984375 0 
L 9.8125 0 
z
" id="DejaVuSans-66"/>
      </defs>
      <use xlink:href="#DejaVuSans-76"/>
      <use x="53.962891" xlink:href="#DejaVuSans-111"/>
      <use x="115.144531" xlink:href="#DejaVuSans-115"/>
      <use x="167.244141" xlink:href="#DejaVuSans-115"/>
      <use x="219.34375" xlink:href="#DejaVuSans-32"/>
      <use x="251.130859" xlink:href="#DejaVuSans-40"/>
      <use x="290.144531" xlink:href="#DejaVuSans-100"/>
      <use x="353.621094" xlink:href="#DejaVuSans-66"/>
      <use x="422.224609" xlink:href="#DejaVuSans-41"/>
     </g>
    </g>
   </g>
   <g id="line2d_12">
    <path clip-path="url(#peaab844a6f)" d="M 70.586182 295.488 
L 70.906486 275.87482 
L 71.33574 262.34849 
L 71.876789 251.865583 
L 72.548534 243.073468 
L 73.339719 235.633986 
L 74.246348 229.208979 
L 75.286489 223.460289 
L 76.431224 218.387915 
L 77.73684 213.653699 
L 79.076038 209.5958 
L 80.657246 205.5379 
L 82.356503 201.81816 
L 84.142662 198.436577 
L 86.194013 195.054994 
L 88.299396 192.01157 
L 90.684126 188.968145 
L 93.068256 186.262879 
L 95.731593 183.557613 
L 98.706835 180.852347 
L 102.03051 178.147081 
L 105.743423 175.441815 
L 109.347225 173.074707 
L 113.317724 170.707599 
L 117.692233 168.340491 
L 122.51186 165.973383 
L 127.821898 163.606275 
L 133.672247 161.239167 
L 140.117886 158.872059 
L 147.219387 156.504951 
L 155.043485 154.137844 
L 163.663707 151.770736 
L 173.161062 149.403628 
L 183.624798 147.03652 
L 195.15325 144.669412 
L 207.854753 142.302304 
L 221.848671 139.935196 
L 237.266509 137.568088 
L 254.253155 135.200981 
L 272.96824 132.833873 
L 293.587638 130.466765 
L 316.305118 128.099657 
L 330.309818 126.747024 
L 330.309818 126.747024 
" style="fill:none;stroke:#440154;stroke-linecap:square;stroke-width:1.5;"/>
   </g>
   <g id="line2d_13">
    <path clip-path="url(#peaab844a6f)" d="M 70.586182 274.542413 
L 70.906486 254.929233 
L 71.33574 241.402903 
L 71.876789 230.919996 
L 72.548534 222.127881 
L 73.339719 214.688399 
L 74.246348 208.263392 
L 75.286489 202.514702 
L 76.431224 197.442328 
L 77.73684 192.708112 
L 79.076038 188.650213 
L 80.657246 184.592313 
L 82.356503 180.872573 
L 84.142662 177.49099 
L 86.194013 174.109407 
L 88.299396 171.065983 
L 90.684126 168.022558 
L 93.068256 165.317292 
L 95.731593 162.612026 
L 98.706835 159.90676 
L 102.03051 157.201494 
L 105.743423 154.496228 
L 109.347225 152.12912 
L 113.317724 149.762012 
L 117.692233 147.394904 
L 122.51186 145.027796 
L 127.821898 142.660688 
L 133.672247 140.29358 
L 140.117886 137.926472 
L 147.219387 135.559364 
L 155.043485 133.192257 
L 163.663707 130.825149 
L 173.161062 128.458041 
L 183.624798 126.090933 
L 195.15325 123.723825 
L 207.854753 121.356717 
L 221.848671 118.989609 
L 237.266509 116.622501 
L 254.253155 114.255394 
L 272.96824 111.888286 
L 293.587638 109.521178 
L 316.305118 107.15407 
L 330.309818 105.801437 
L 330.309818 105.801437 
" style="fill:none;stroke:#481b6d;stroke-linecap:square;stroke-width:1.5;"/>
   </g>
   <g id="line2d_14">
    <path clip-path="url(#peaab844a6f)" d="M 70.586182 263.434228 
L 70.906486 243.821048 
L 71.33574 230.294718 
L 71.876789 219.811811 
L 72.548534 211.019696 
L 73.339719 203.580214 
L 74.246348 197.155207 
L 75.286489 191.406517 
L 76.431224 186.334143 
L 77.73684 181.599927 
L 79.076038 177.542028 
L 80.657246 173.484129 
L 82.356503 169.764388 
L 84.142662 166.382805 
L 86.194013 163.001222 
L 88.299396 159.957798 
L 90.684126 156.914373 
L 93.068256 154.209107 
L 95.731593 151.503841 
L 98.706835 148.798575 
L 102.03051 146.093309 
L 105.743423 143.388043 
L 109.347225 141.020935 
L 113.317724 138.653827 
L 117.692233 136.286719 
L 122.51186 133.919611 
L 127.821898 131.552503 
L 133.672247 129.185395 
L 140.117886 126.818287 
L 147.219387 124.45118 
L 155.043485 122.084072 
L 163.663707 119.716964 
L 173.161062 117.349856 
L 183.624798 114.982748 
L 195.15325 112.61564 
L 207.854753 110.248532 
L 221.848671 107.881424 
L 237.266509 105.514317 
L 254.253155 103.147209 
L 272.96824 100.780101 
L 293.587638 98.412993 
L 316.305118 96.045885 
L 330.309818 94.693252 
L 330.309818 94.693252 
" style="fill:none;stroke:#46327e;stroke-linecap:square;stroke-width:1.5;"/>
   </g>
   <g id="line2d_15">
    <path clip-path="url(#peaab844a6f)" d="M 70.586182 255.826541 
L 70.906486 236.213361 
L 71.33574 222.687031 
L 71.876789 212.204124 
L 72.548534 203.412009 
L 73.339719 195.972527 
L 74.246348 189.54752 
L 75.286489 183.79883 
L 76.431224 178.726456 
L 77.73684 173.99224 
L 79.076038 169.934341 
L 80.657246 165.876441 
L 82.356503 162.1567 
L 84.142662 158.775118 
L 86.194013 155.393535 
L 88.299396 152.350111 
L 90.684126 149.306686 
L 93.068256 146.60142 
L 95.731593 143.896154 
L 98.706835 141.190888 
L 102.03051 138.485622 
L 105.743423 135.780355 
L 109.347225 133.413248 
L 113.317724 131.04614 
L 117.692233 128.679032 
L 122.51186 126.311924 
L 127.821898 123.944816 
L 133.672247 121.577708 
L 140.117886 119.2106 
L 147.219387 116.843492 
L 155.043485 114.476384 
L 163.663707 112.109277 
L 173.161062 109.742169 
L 183.624798 107.375061 
L 195.15325 105.007953 
L 207.854753 102.640845 
L 221.848671 100.273737 
L 237.266509 97.906629 
L 254.253155 95.539521 
L 272.96824 93.172414 
L 293.587638 90.805306 
L 316.305118 88.438198 
L 330.309818 87.085565 
L 330.309818 87.085565 
" style="fill:none;stroke:#3f4788;stroke-linecap:square;stroke-width:1.5;"/>
   </g>
   <g id="line2d_16">
    <path clip-path="url(#peaab844a6f)" d="M 70.586182 250.033992 
L 70.906486 230.420812 
L 71.33574 216.894481 
L 71.876789 206.411575 
L 72.548534 197.61946 
L 73.339719 190.179978 
L 74.246348 183.754971 
L 75.286489 178.00628 
L 76.431224 172.933906 
L 77.73684 168.199691 
L 79.076038 164.141791 
L 80.657246 160.083892 
L 82.356503 156.364151 
L 84.142662 152.982568 
L 86.194013 149.600986 
L 88.299396 146.557561 
L 90.684126 143.514137 
L 93.068256 140.808871 
L 95.731593 138.103605 
L 98.706835 135.398338 
L 102.03051 132.693072 
L 105.743423 129.987806 
L 109.347225 127.620698 
L 113.317724 125.25359 
L 117.692233 122.886483 
L 122.51186 120.519375 
L 127.821898 118.152267 
L 133.672247 115.785159 
L 140.117886 113.418051 
L 147.219387 111.050943 
L 155.043485 108.683835 
L 163.663707 106.316727 
L 173.161062 103.949619 
L 183.624798 101.582512 
L 195.15325 99.215404 
L 207.854753 96.848296 
L 221.848671 94.481188 
L 237.266509 92.11408 
L 254.253155 89.746972 
L 272.96824 87.379864 
L 293.587638 85.012756 
L 316.305118 82.645649 
L 330.309818 81.293015 
L 330.309818 81.293015 
" style="fill:none;stroke:#365c8d;stroke-linecap:square;stroke-width:1.5;"/>
   </g>
   <g id="line2d_17">
    <path clip-path="url(#peaab844a6f)" d="M 70.586182 245.355142 
L 70.906486 225.741963 
L 71.33574 212.215632 
L 71.876789 201.732726 
L 72.548534 192.940611 
L 73.339719 185.501129 
L 74.246348 179.076122 
L 75.286489 173.327431 
L 76.431224 168.255057 
L 77.73684 163.520841 
L 79.076038 159.462942 
L 80.657246 155.405043 
L 82.356503 151.685302 
L 84.142662 148.303719 
L 86.194013 144.922137 
L 88.299396 141.878712 
L 90.684126 138.835288 
L 93.068256 136.130022 
L 95.731593 133.424755 
L 98.706835 130.719489 
L 102.03051 128.014223 
L 105.743423 125.308957 
L 109.347225 122.941849 
L 113.317724 120.574741 
L 117.692233 118.207633 
L 122.51186 115.840525 
L 127.821898 113.473418 
L 133.672247 111.10631 
L 140.117886 108.739202 
L 147.219387 106.372094 
L 155.043485 104.004986 
L 163.663707 101.637878 
L 173.161062 99.27077 
L 183.624798 96.903662 
L 195.15325 94.536555 
L 207.854753 92.169447 
L 221.848671 89.802339 
L 237.266509 87.435231 
L 254.253155 85.068123 
L 272.96824 82.701015 
L 293.587638 80.333907 
L 316.305118 77.966799 
L 330.309818 76.614166 
L 330.309818 76.614166 
" style="fill:none;stroke:#2e6e8e;stroke-linecap:square;stroke-width:1.5;"/>
   </g>
   <g id="line2d_18">
    <path clip-path="url(#peaab844a6f)" d="M 70.586182 241.430032 
L 70.906486 221.816852 
L 71.33574 208.290522 
L 71.876789 197.807615 
L 72.548534 189.0155 
L 73.339719 181.576019 
L 74.246348 175.151011 
L 75.286489 169.402321 
L 76.431224 164.329947 
L 77.73684 159.595731 
L 79.076038 155.537832 
L 80.657246 151.479933 
L 82.356503 147.760192 
L 84.142662 144.378609 
L 86.194013 140.997026 
L 88.299396 137.953602 
L 90.684126 134.910177 
L 93.068256 132.204911 
L 95.731593 129.499645 
L 98.706835 126.794379 
L 102.03051 124.089113 
L 105.743423 121.383847 
L 109.347225 119.016739 
L 113.317724 116.649631 
L 117.692233 114.282523 
L 122.51186 111.915415 
L 127.821898 109.548307 
L 133.672247 107.181199 
L 140.117886 104.814091 
L 147.219387 102.446984 
L 155.043485 100.079876 
L 163.663707 97.712768 
L 173.161062 95.34566 
L 183.624798 92.978552 
L 195.15325 90.611444 
L 207.854753 88.244336 
L 221.848671 85.877228 
L 237.266509 83.510121 
L 254.253155 81.143013 
L 272.96824 78.775905 
L 293.587638 76.408797 
L 316.305118 74.041689 
L 330.309818 72.689056 
L 330.309818 72.689056 
" style="fill:none;stroke:#277f8e;stroke-linecap:square;stroke-width:1.5;"/>
   </g>
   <g id="line2d_19">
    <path clip-path="url(#peaab844a6f)" d="M 70.586182 238.049174 
L 70.906486 218.435994 
L 71.33574 204.909663 
L 71.876789 194.426757 
L 72.548534 185.634642 
L 73.339719 178.19516 
L 74.246348 171.770153 
L 75.286489 166.021462 
L 76.431224 160.949088 
L 77.73684 156.214873 
L 79.076038 152.156973 
L 80.657246 148.099074 
L 82.356503 144.379333 
L 84.142662 140.99775 
L 86.194013 137.616168 
L 88.299396 134.572743 
L 90.684126 131.529319 
L 93.068256 128.824053 
L 95.731593 126.118787 
L 98.706835 123.41352 
L 102.03051 120.708254 
L 105.743423 118.002988 
L 109.347225 115.63588 
L 113.317724 113.268772 
L 117.692233 110.901665 
L 122.51186 108.534557 
L 127.821898 106.167449 
L 133.672247 103.800341 
L 140.117886 101.433233 
L 147.219387 99.066125 
L 155.043485 96.699017 
L 163.663707 94.331909 
L 173.161062 91.964801 
L 183.624798 89.597694 
L 195.15325 87.230586 
L 207.854753 84.863478 
L 221.848671 82.49637 
L 237.266509 80.129262 
L 254.253155 77.762154 
L 272.96824 75.395046 
L 293.587638 73.027938 
L 316.305118 70.660831 
L 330.309818 69.308197 
L 330.309818 69.308197 
" style="fill:none;stroke:#21918c;stroke-linecap:square;stroke-width:1.5;"/>
   </g>
   <g id="line2d_20">
    <path clip-path="url(#peaab844a6f)" d="M 70.586182 235.079853 
L 70.906486 215.466673 
L 71.33574 201.940342 
L 71.876789 191.457436 
L 72.548534 182.665321 
L 73.339719 175.225839 
L 74.246348 168.800832 
L 75.286489 163.052141 
L 76.431224 157.979767 
L 77.73684 153.245551 
L 79.076038 149.187652 
L 80.657246 145.129753 
L 82.356503 141.410012 
L 84.142662 138.028429 
L 86.194013 134.646847 
L 88.299396 131.603422 
L 90.684126 128.559998 
L 93.068256 125.854732 
L 95.731593 123.149466 
L 98.706835 120.444199 
L 102.03051 117.738933 
L 105.743423 115.033667 
L 109.347225 112.666559 
L 113.317724 110.299451 
L 117.692233 107.932343 
L 122.51186 105.565236 
L 127.821898 103.198128 
L 133.672247 100.83102 
L 140.117886 98.463912 
L 147.219387 96.096804 
L 155.043485 93.729696 
L 163.663707 91.362588 
L 173.161062 88.99548 
L 183.624798 86.628372 
L 195.15325 84.261265 
L 207.854753 81.894157 
L 221.848671 79.527049 
L 237.266509 77.159941 
L 254.253155 74.792833 
L 272.96824 72.425725 
L 293.587638 70.058617 
L 316.305118 67.691509 
L 330.309818 66.338876 
L 330.309818 66.338876 
" style="fill:none;stroke:#1fa187;stroke-linecap:square;stroke-width:1.5;"/>
   </g>
   <g id="line2d_21">
    <path clip-path="url(#peaab844a6f)" d="M 70.586182 232.432664 
L 70.906486 212.819485 
L 71.33574 199.293154 
L 71.876789 188.810248 
L 72.548534 180.018133 
L 73.339719 172.578651 
L 74.246348 166.153644 
L 75.286489 160.404953 
L 76.431224 155.332579 
L 77.73684 150.598363 
L 79.076038 146.540464 
L 80.657246 142.482565 
L 82.356503 138.762824 
L 84.142662 135.381241 
L 86.194013 131.999658 
L 88.299396 128.956234 
L 90.684126 125.91281 
L 93.068256 123.207543 
L 95.731593 120.502277 
L 98.706835 117.797011 
L 102.03051 115.091745 
L 105.743423 112.386479 
L 109.347225 110.019371 
L 113.317724 107.652263 
L 117.692233 105.285155 
L 122.51186 102.918047 
L 127.821898 100.550939 
L 133.672247 98.183832 
L 140.117886 95.816724 
L 147.219387 93.449616 
L 155.043485 91.082508 
L 163.663707 88.7154 
L 173.161062 86.348292 
L 183.624798 83.981184 
L 195.15325 81.614076 
L 207.854753 79.246969 
L 221.848671 76.879861 
L 237.266509 74.512753 
L 254.253155 72.145645 
L 272.96824 69.778537 
L 293.587638 67.411429 
L 316.305118 65.044321 
L 330.309818 63.691688 
L 330.309818 63.691688 
" style="fill:none;stroke:#2db27d;stroke-linecap:square;stroke-width:1.5;"/>
   </g>
   <g id="line2d_22">
    <path clip-path="url(#peaab844a6f)" d="M 70.586182 230.044505 
L 70.906486 210.431325 
L 71.33574 196.904994 
L 71.876789 186.422088 
L 72.548534 177.629973 
L 73.339719 170.190491 
L 74.246348 163.765484 
L 75.286489 158.016794 
L 76.431224 152.94442 
L 77.73684 148.210204 
L 79.076038 144.152305 
L 80.657246 140.094405 
L 82.356503 136.374664 
L 84.142662 132.993082 
L 86.194013 129.611499 
L 88.299396 126.568075 
L 90.684126 123.52465 
L 93.068256 120.819384 
L 95.731593 118.114118 
L 98.706835 115.408852 
L 102.03051 112.703586 
L 105.743423 109.998319 
L 109.347225 107.631212 
L 113.317724 105.264104 
L 117.692233 102.896996 
L 122.51186 100.529888 
L 127.821898 98.16278 
L 133.672247 95.795672 
L 140.117886 93.428564 
L 147.219387 91.061456 
L 155.043485 88.694348 
L 163.663707 86.327241 
L 173.161062 83.960133 
L 183.624798 81.593025 
L 195.15325 79.225917 
L 207.854753 76.858809 
L 221.848671 74.491701 
L 237.266509 72.124593 
L 254.253155 69.757485 
L 272.96824 67.390378 
L 293.587638 65.02327 
L 316.305118 62.656162 
L 330.309818 61.303529 
L 330.309818 61.303529 
" style="fill:none;stroke:#4ac16d;stroke-linecap:square;stroke-width:1.5;"/>
   </g>
   <g id="line2d_23">
    <path clip-path="url(#peaab844a6f)" d="M 70.586182 227.86917 
L 70.906486 208.25599 
L 71.33574 194.729659 
L 71.876789 184.246753 
L 72.548534 175.454638 
L 73.339719 168.015156 
L 74.246348 161.590149 
L 75.286489 155.841458 
L 76.431224 150.769084 
L 77.73684 146.034868 
L 79.076038 141.976969 
L 80.657246 137.91907 
L 82.356503 134.199329 
L 84.142662 130.817746 
L 86.194013 127.436164 
L 88.299396 124.392739 
L 90.684126 121.349315 
L 93.068256 118.644049 
L 95.731593 115.938783 
L 98.706835 113.233516 
L 102.03051 110.52825 
L 105.743423 107.822984 
L 109.347225 105.455876 
L 113.317724 103.088768 
L 117.692233 100.72166 
L 122.51186 98.354553 
L 127.821898 95.987445 
L 133.672247 93.620337 
L 140.117886 91.253229 
L 147.219387 88.886121 
L 155.043485 86.519013 
L 163.663707 84.151905 
L 173.161062 81.784797 
L 183.624798 79.41769 
L 195.15325 77.050582 
L 207.854753 74.683474 
L 221.848671 72.316366 
L 237.266509 69.949258 
L 254.253155 67.58215 
L 272.96824 65.215042 
L 293.587638 62.847934 
L 316.305118 60.480826 
L 330.309818 59.128193 
L 330.309818 59.128193 
" style="fill:none;stroke:#73d056;stroke-linecap:square;stroke-width:1.5;"/>
   </g>
   <g id="line2d_24">
    <path clip-path="url(#peaab844a6f)" d="M 70.586182 225.871811 
L 70.906486 206.258631 
L 71.33574 192.7323 
L 71.876789 182.249394 
L 72.548534 173.457279 
L 73.339719 166.017797 
L 74.246348 159.59279 
L 75.286489 153.844099 
L 76.431224 148.771725 
L 77.73684 144.037509 
L 79.076038 139.97961 
L 80.657246 135.921711 
L 82.356503 132.20197 
L 84.142662 128.820387 
L 86.194013 125.438805 
L 88.299396 122.39538 
L 90.684126 119.351956 
L 93.068256 116.64669 
L 95.731593 113.941424 
L 98.706835 111.236157 
L 102.03051 108.530891 
L 105.743423 105.825625 
L 109.347225 103.458517 
L 113.317724 101.091409 
L 117.692233 98.724301 
L 122.51186 96.357194 
L 127.821898 93.990086 
L 133.672247 91.622978 
L 140.117886 89.25587 
L 147.219387 86.888762 
L 155.043485 84.521654 
L 163.663707 82.154546 
L 173.161062 79.787438 
L 183.624798 77.420331 
L 195.15325 75.053223 
L 207.854753 72.686115 
L 221.848671 70.319007 
L 237.266509 67.951899 
L 254.253155 65.584791 
L 272.96824 63.217683 
L 293.587638 60.850575 
L 316.305118 58.483467 
L 330.309818 57.130834 
L 330.309818 57.130834 
" style="fill:none;stroke:#a0da39;stroke-linecap:square;stroke-width:1.5;"/>
   </g>
   <g id="line2d_25">
    <path clip-path="url(#peaab844a6f)" d="M 70.586182 224.025495 
L 70.906486 204.412316 
L 71.33574 190.885985 
L 71.876789 180.403078 
L 72.548534 171.610963 
L 73.339719 164.171482 
L 74.246348 157.746474 
L 75.286489 151.997784 
L 76.431224 146.92541 
L 77.73684 142.191194 
L 79.076038 138.133295 
L 80.657246 134.075396 
L 82.356503 130.355655 
L 84.142662 126.974072 
L 86.194013 123.592489 
L 88.299396 120.549065 
L 90.684126 117.50564 
L 93.068256 114.800374 
L 95.731593 112.095108 
L 98.706835 109.389842 
L 102.03051 106.684576 
L 105.743423 103.97931 
L 109.347225 101.612202 
L 113.317724 99.245094 
L 117.692233 96.877986 
L 122.51186 94.510878 
L 127.821898 92.14377 
L 133.672247 89.776662 
L 140.117886 87.409554 
L 147.219387 85.042447 
L 155.043485 82.675339 
L 163.663707 80.308231 
L 173.161062 77.941123 
L 183.624798 75.574015 
L 195.15325 73.206907 
L 207.854753 70.839799 
L 221.848671 68.472691 
L 237.266509 66.105584 
L 254.253155 63.738476 
L 272.96824 61.371368 
L 293.587638 59.00426 
L 316.305118 56.637152 
L 330.309818 55.284519 
L 330.309818 55.284519 
" style="fill:none;stroke:#d0e11c;stroke-linecap:square;stroke-width:1.5;"/>
   </g>
   <g id="line2d_26">
    <path clip-path="url(#peaab844a6f)" d="M 70.586182 222.308976 
L 70.906486 202.695797 
L 71.33574 189.169466 
L 71.876789 178.686559 
L 72.548534 169.894444 
L 73.339719 162.454963 
L 74.246348 156.029955 
L 75.286489 150.281265 
L 76.431224 145.208891 
L 77.73684 140.474675 
L 79.076038 136.416776 
L 80.657246 132.358877 
L 82.356503 128.639136 
L 84.142662 125.257553 
L 86.194013 121.87597 
L 88.299396 118.832546 
L 90.684126 115.789121 
L 93.068256 113.083855 
L 95.731593 110.378589 
L 98.706835 107.673323 
L 102.03051 104.968057 
L 105.743423 102.262791 
L 109.347225 99.895683 
L 113.317724 97.528575 
L 117.692233 95.161467 
L 122.51186 92.794359 
L 127.821898 90.427251 
L 133.672247 88.060143 
L 140.117886 85.693036 
L 147.219387 83.325928 
L 155.043485 80.95882 
L 163.663707 78.591712 
L 173.161062 76.224604 
L 183.624798 73.857496 
L 195.15325 71.490388 
L 207.854753 69.12328 
L 221.848671 66.756172 
L 237.266509 64.389065 
L 254.253155 62.021957 
L 272.96824 59.654849 
L 293.587638 57.287741 
L 316.305118 54.920633 
L 330.309818 53.568 
L 330.309818 53.568 
" style="fill:none;stroke:#fde725;stroke-linecap:square;stroke-width:1.5;"/>
   </g>
   <g id="patch_3">
    <path d="M 57.6 307.584 
L 57.6 41.472 
" style="fill:none;stroke:#000000;stroke-linecap:square;stroke-linejoin:miter;stroke-width:0.8;"/>
   </g>
   <g id="patch_4">
    <path d="M 343.296 307.584 
L 343.296 41.472 
" style="fill:none;stroke:#000000;stroke-linecap:square;stroke-linejoin:miter;stroke-width:0.8;"/>
   </g>
   <g id="patch_5">
    <path d="M 57.6 307.584 
L 343.296 307.584 
" style="fill:none;stroke:#000000;stroke-linecap:square;stroke-linejoin:miter;stroke-width:0.8;"/>
   </g>
   <g id="patch_6">
    <path d="M 57.6 41.472 
L 343.296 41.472 
" style="fill:none;stroke:#000000;stroke-linecap:square;stroke-linejoin:miter;stroke-width:0.8;"/>
   </g>
   <g id="text_14">
    <!-- Free Space Path Loss -->
    <g transform="translate(137.370188 35.472)scale(0.12 -0.12)">
     <defs>
      <path d="M 9.8125 72.90625 
L 51.703125 72.90625 
L 51.703125 64.59375 
L 19.671875 64.59375 
L 19.671875 43.109375 
L 48.578125 43.109375 
L 48.578125 34.8125 
L 19.671875 34.8125 
L 19.671875 0 
L 9.8125 0 
z
" id="DejaVuSans-70"/>
      <path d="M 41.109375 46.296875 
Q 39.59375 47.171875 37.8125 47.578125 
Q 36.03125 48 33.890625 48 
Q 26.265625 48 22.1875 43.046875 
Q 18.109375 38.09375 18.109375 28.8125 
L 18.109375 0 
L 9.078125 0 
L 9.078125 54.6875 
L 18.109375 54.6875 
L 18.109375 46.1875 
Q 20.953125 51.171875 25.484375 53.578125 
Q 30.03125 56 36.53125 56 
Q 37.453125 56 38.578125 55.875 
Q 39.703125 55.765625 41.0625 55.515625 
z
" id="DejaVuSans-114"/>
      <path d="M 53.515625 70.515625 
L 53.515625 60.890625 
Q 47.90625 63.578125 42.921875 64.890625 
Q 37.9375 66.21875 33.296875 66.21875 
Q 25.25 66.21875 20.875 63.09375 
Q 16.5 59.96875 16.5 54.203125 
Q 16.5 49.359375 19.40625 46.890625 
Q 22.3125 44.4375 30.421875 42.921875 
L 36.375 41.703125 
Q 47.40625 39.59375 52.65625 34.296875 
Q 57.90625 29 57.90625 20.125 
Q 57.90625 9.515625 50.796875 4.046875 
Q 43.703125 -1.421875 29.984375 -1.421875 
Q 24.8125 -1.421875 18.96875 -0.25 
Q 13.140625 0.921875 6.890625 3.21875 
L 6.890625 13.375 
Q 12.890625 10.015625 18.65625 8.296875 
Q 24.421875 6.59375 29.984375 6.59375 
Q 38.421875 6.59375 43.015625 9.90625 
Q 47.609375 13.234375 47.609375 19.390625 
Q 47.609375 24.75 44.3125 27.78125 
Q 41.015625 30.8125 33.5 32.328125 
L 27.484375 33.5 
Q 16.453125 35.6875 11.515625 40.375 
Q 6.59375 45.0625 6.59375 53.421875 
Q 6.59375 63.09375 13.40625 68.65625 
Q 20.21875 74.21875 32.171875 74.21875 
Q 37.3125 74.21875 42.625 73.28125 
Q 47.953125 72.359375 53.515625 70.515625 
z
" id="DejaVuSans-83"/>
      <path d="M 18.109375 8.203125 
L 18.109375 -20.796875 
L 9.078125 -20.796875 
L 9.078125 54.6875 
L 18.109375 54.6875 
L 18.109375 46.390625 
Q 20.953125 51.265625 25.265625 53.625 
Q 29.59375 56 35.59375 56 
Q 45.5625 56 51.78125 48.09375 
Q 58.015625 40.1875 58.015625 27.296875 
Q 58.015625 14.40625 51.78125 6.484375 
Q 45.5625 -1.421875 35.59375 -1.421875 
Q 29.59375 -1.421875 25.265625 0.953125 
Q 20.953125 3.328125 18.109375 8.203125 
z
M 48.6875 27.296875 
Q 48.6875 37.203125 44.609375 42.84375 
Q 40.53125 48.484375 33.40625 48.484375 
Q 26.265625 48.484375 22.1875 42.84375 
Q 18.109375 37.203125 18.109375 27.296875 
Q 18.109375 17.390625 22.1875 11.75 
Q 26.265625 6.109375 33.40625 6.109375 
Q 40.53125 6.109375 44.609375 11.75 
Q 48.6875 17.390625 48.6875 27.296875 
z
" id="DejaVuSans-112"/>
      <path d="M 19.671875 64.796875 
L 19.671875 37.40625 
L 32.078125 37.40625 
Q 38.96875 37.40625 42.71875 40.96875 
Q 46.484375 44.53125 46.484375 51.125 
Q 46.484375 57.671875 42.71875 61.234375 
Q 38.96875 64.796875 32.078125 64.796875 
z
M 9.8125 72.90625 
L 32.078125 72.90625 
Q 44.34375 72.90625 50.609375 67.359375 
Q 56.890625 61.8125 56.890625 51.125 
Q 56.890625 40.328125 50.609375 34.8125 
Q 44.34375 29.296875 32.078125 29.296875 
L 19.671875 29.296875 
L 19.671875 0 
L 9.8125 0 
z
" id="DejaVuSans-80"/>
      <path d="M 54.890625 33.015625 
L 54.890625 0 
L 45.90625 0 
L 45.90625 32.71875 
Q 45.90625 40.484375 42.875 44.328125 
Q 39.84375 48.1875 33.796875 48.1875 
Q 26.515625 48.1875 22.3125 43.546875 
Q 18.109375 38.921875 18.109375 30.90625 
L 18.109375 0 
L 9.078125 0 
L 9.078125 75.984375 
L 18.109375 75.984375 
L 18.109375 46.1875 
Q 21.34375 51.125 25.703125 53.5625 
Q 30.078125 56 35.796875 56 
Q 45.21875 56 50.046875 50.171875 
Q 54.890625 44.34375 54.890625 33.015625 
z
" id="DejaVuSans-104"/>
     </defs>
     <use xlink:href="#DejaVuSans-70"/>
     <use x="50.269531" xlink:href="#DejaVuSans-114"/>
     <use x="89.132812" xlink:href="#DejaVuSans-101"/>
     <use x="150.65625" xlink:href="#DejaVuSans-101"/>
     <use x="212.179688" xlink:href="#DejaVuSans-32"/>
     <use x="243.966797" xlink:href="#DejaVuSans-83"/>
     <use x="307.443359" xlink:href="#DejaVuSans-112"/>
     <use x="370.919922" xlink:href="#DejaVuSans-97"/>
     <use x="432.199219" xlink:href="#DejaVuSans-99"/>
     <use x="487.179688" xlink:href="#DejaVuSans-101"/>
     <use x="548.703125" xlink:href="#DejaVuSans-32"/>
     <use x="580.490234" xlink:href="#DejaVuSans-80"/>
     <use x="636.292969" xlink:href="#DejaVuSans-97"/>
     <use x="697.572266" xlink:href="#DejaVuSans-116"/>
     <use x="736.78125" xlink:href="#DejaVuSans-104"/>
     <use x="800.160156" xlink:href="#DejaVuSans-32"/>
     <use x="831.947266" xlink:href="#DejaVuSans-76"/>
     <use x="885.910156" xlink:href="#DejaVuSans-111"/>
     <use x="947.091797" xlink:href="#DejaVuSans-115"/>
     <use x="999.191406" xlink:href="#DejaVuSans-115"/>
    </g>
   </g>
  </g>
  <g id="axes_2">
   <g id="patch_7">
    <path clip-path="url(#p4b5cb3cee7)" d="M 361.152 307.584 
L 361.152 289.8432 
L 361.152 59.2128 
L 361.152 41.472 
L 374.4576 41.472 
L 374.4576 59.2128 
L 374.4576 289.8432 
L 374.4576 307.584 
z
" style="fill:#ffffff;stroke:#ffffff;stroke-linejoin:miter;stroke-width:0.01;"/>
   </g>
   <g id="QuadMesh_1">
    <path clip-path="url(#p4b5cb3cee7)" d="M 361.152 307.584 
L 374.4576 307.584 
L 374.4576 289.8432 
L 361.152 289.8432 
L 361.152 307.584 
" style="fill:#440154;"/>
    <path clip-path="url(#p4b5cb3cee7)" d="M 361.152 289.8432 
L 374.4576 289.8432 
L 374.4576 272.1024 
L 361.152 272.1024 
L 361.152 289.8432 
" style="fill:#481b6d;"/>
    <path clip-path="url(#p4b5cb3cee7)" d="M 361.152 272.1024 
L 374.4576 272.1024 
L 374.4576 254.3616 
L 361.152 254.3616 
L 361.152 272.1024 
" style="fill:#46327e;"/>
    <path clip-path="url(#p4b5cb3cee7)" d="M 361.152 254.3616 
L 374.4576 254.3616 
L 374.4576 236.6208 
L 361.152 236.6208 
L 361.152 254.3616 
" style="fill:#3f4788;"/>
    <path clip-path="url(#p4b5cb3cee7)" d="M 361.152 236.6208 
L 374.4576 236.6208 
L 374.4576 218.88 
L 361.152 218.88 
L 361.152 236.6208 
" style="fill:#365c8d;"/>
    <path clip-path="url(#p4b5cb3cee7)" d="M 361.152 218.88 
L 374.4576 218.88 
L 374.4576 201.1392 
L 361.152 201.1392 
L 361.152 218.88 
" style="fill:#2e6e8e;"/>
    <path clip-path="url(#p4b5cb3cee7)" d="M 361.152 201.1392 
L 374.4576 201.1392 
L 374.4576 183.3984 
L 361.152 183.3984 
L 361.152 201.1392 
" style="fill:#277f8e;"/>
    <path clip-path="url(#p4b5cb3cee7)" d="M 361.152 183.3984 
L 374.4576 183.3984 
L 374.4576 165.6576 
L 361.152 165.6576 
L 361.152 183.3984 
" style="fill:#21918c;"/>
    <path clip-path="url(#p4b5cb3cee7)" d="M 361.152 165.6576 
L 374.4576 165.6576 
L 374.4576 147.9168 
L 361.152 147.9168 
L 361.152 165.6576 
" style="fill:#1fa187;"/>
    <path clip-path="url(#p4b5cb3cee7)" d="M 361.152 147.9168 
L 374.4576 147.9168 
L 374.4576 130.176 
L 361.152 130.176 
L 361.152 147.9168 
" style="fill:#2db27d;"/>
    <path clip-path="url(#p4b5cb3cee7)" d="M 361.152 130.176 
L 374.4576 130.176 
L 374.4576 112.4352 
L 361.152 112.4352 
L 361.152 130.176 
" style="fill:#4ac16d;"/>
    <path clip-path="url(#p4b5cb3cee7)" d="M 361.152 112.4352 
L 374.4576 112.4352 
L 374.4576 94.6944 
L 361.152 94.6944 
L 361.152 112.4352 
" style="fill:#73d056;"/>
    <path clip-path="url(#p4b5cb3cee7)" d="M 361.152 94.6944 
L 374.4576 94.6944 
L 374.4576 76.9536 
L 361.152 76.9536 
L 361.152 94.6944 
" style="fill:#a0da39;"/>
    <path clip-path="url(#p4b5cb3cee7)" d="M 361.152 76.9536 
L 374.4576 76.9536 
L 374.4576 59.2128 
L 361.152 59.2128 
L 361.152 76.9536 
" style="fill:#d0e11c;"/>
    <path clip-path="url(#p4b5cb3cee7)" d="M 361.152 59.2128 
L 374.4576 59.2128 
L 374.4576 41.472 
L 361.152 41.472 
L 361.152 59.2128 
" style="fill:#fde725;"/>
   </g>
   <g id="matplotlib.axis_3"/>
   <g id="matplotlib.axis_4">
    <g id="ytick_6">
     <g id="line2d_27">
      <defs>
       <path d="M 0 0 
L 3.5 0 
" id="md4d817370d" style="stroke:#000000;stroke-width:0.8;"/>
      </defs>
      <g>
       <use style="stroke:#000000;stroke-width:0.8;" x="374.4576" xlink:href="#md4d817370d" y="307.584"/>
      </g>
     </g>
     <g id="text_15">
      <!-- 0 -->
      <g transform="translate(381.4576 311.383219)scale(0.1 -0.1)">
       <use xlink:href="#DejaVuSans-48"/>
      </g>
     </g>
    </g>
    <g id="ytick_7">
     <g id="line2d_28">
      <g>
       <use style="stroke:#000000;stroke-width:0.8;" x="374.4576" xlink:href="#md4d817370d" y="272.1024"/>
      </g>
     </g>
     <g id="text_16">
      <!-- 2 -->
      <g transform="translate(381.4576 275.901619)scale(0.1 -0.1)">
       <use xlink:href="#DejaVuSans-50"/>
      </g>
     </g>
    </g>
    <g id="ytick_8">
     <g id="line2d_29">
      <g>
       <use style="stroke:#000000;stroke-width:0.8;" x="374.4576" xlink:href="#md4d817370d" y="236.6208"/>
      </g>
     </g>
     <g id="text_17">
      <!-- 4 -->
      <g transform="translate(381.4576 240.420019)scale(0.1 -0.1)">
       <use xlink:href="#DejaVuSans-52"/>
      </g>
     </g>
    </g>
    <g id="ytick_9">
     <g id="line2d_30">
      <g>
       <use style="stroke:#000000;stroke-width:0.8;" x="374.4576" xlink:href="#md4d817370d" y="201.1392"/>
      </g>
     </g>
     <g id="text_18">
      <!-- 6 -->
      <g transform="translate(381.4576 204.938419)scale(0.1 -0.1)">
       <use xlink:href="#DejaVuSans-54"/>
      </g>
     </g>
    </g>
    <g id="ytick_10">
     <g id="line2d_31">
      <g>
       <use style="stroke:#000000;stroke-width:0.8;" x="374.4576" xlink:href="#md4d817370d" y="165.6576"/>
      </g>
     </g>
     <g id="text_19">
      <!-- 8 -->
      <g transform="translate(381.4576 169.456819)scale(0.1 -0.1)">
       <use xlink:href="#DejaVuSans-56"/>
      </g>
     </g>
    </g>
    <g id="ytick_11">
     <g id="line2d_32">
      <g>
       <use style="stroke:#000000;stroke-width:0.8;" x="374.4576" xlink:href="#md4d817370d" y="130.176"/>
      </g>
     </g>
     <g id="text_20">
      <!-- 10 -->
      <g transform="translate(381.4576 133.975219)scale(0.1 -0.1)">
       <use xlink:href="#DejaVuSans-49"/>
       <use x="63.623047" xlink:href="#DejaVuSans-48"/>
      </g>
     </g>
    </g>
    <g id="ytick_12">
     <g id="line2d_33">
      <g>
       <use style="stroke:#000000;stroke-width:0.8;" x="374.4576" xlink:href="#md4d817370d" y="94.6944"/>
      </g>
     </g>
     <g id="text_21">
      <!-- 12 -->
      <g transform="translate(381.4576 98.493619)scale(0.1 -0.1)">
       <use xlink:href="#DejaVuSans-49"/>
       <use x="63.623047" xlink:href="#DejaVuSans-50"/>
      </g>
     </g>
    </g>
    <g id="ytick_13">
     <g id="line2d_34">
      <g>
       <use style="stroke:#000000;stroke-width:0.8;" x="374.4576" xlink:href="#md4d817370d" y="59.2128"/>
      </g>
     </g>
     <g id="text_22">
      <!-- 14 -->
      <g transform="translate(381.4576 63.012019)scale(0.1 -0.1)">
       <use xlink:href="#DejaVuSans-49"/>
       <use x="63.623047" xlink:href="#DejaVuSans-52"/>
      </g>
     </g>
    </g>
    <g id="text_23">
     <!-- Frequency (GHz) -->
     <g transform="translate(405.781038 216.106906)rotate(-90)scale(0.1 -0.1)">
      <defs>
       <path d="M 14.796875 27.296875 
Q 14.796875 17.390625 18.875 11.75 
Q 22.953125 6.109375 30.078125 6.109375 
Q 37.203125 6.109375 41.296875 11.75 
Q 45.40625 17.390625 45.40625 27.296875 
Q 45.40625 37.203125 41.296875 42.84375 
Q 37.203125 48.484375 30.078125 48.484375 
Q 22.953125 48.484375 18.875 42.84375 
Q 14.796875 37.203125 14.796875 27.296875 
z
M 45.40625 8.203125 
Q 42.578125 3.328125 38.25 0.953125 
Q 33.9375 -1.421875 27.875 -1.421875 
Q 17.96875 -1.421875 11.734375 6.484375 
Q 5.515625 14.40625 5.515625 27.296875 
Q 5.515625 40.1875 11.734375 48.09375 
Q 17.96875 56 27.875 56 
Q 33.9375 56 38.25 53.625 
Q 42.578125 51.265625 45.40625 46.390625 
L 45.40625 54.6875 
L 54.390625 54.6875 
L 54.390625 -20.796875 
L 45.40625 -20.796875 
z
" id="DejaVuSans-113"/>
       <path d="M 8.5 21.578125 
L 8.5 54.6875 
L 17.484375 54.6875 
L 17.484375 21.921875 
Q 17.484375 14.15625 20.5 10.265625 
Q 23.53125 6.390625 29.59375 6.390625 
Q 36.859375 6.390625 41.078125 11.03125 
Q 45.3125 15.671875 45.3125 23.6875 
L 45.3125 54.6875 
L 54.296875 54.6875 
L 54.296875 0 
L 45.3125 0 
L 45.3125 8.40625 
Q 42.046875 3.421875 37.71875 1 
Q 33.40625 -1.421875 27.6875 -1.421875 
Q 18.265625 -1.421875 13.375 4.4375 
Q 8.5 10.296875 8.5 21.578125 
z
M 31.109375 56 
z
" id="DejaVuSans-117"/>
       <path d="M 32.171875 -5.078125 
Q 28.375 -14.84375 24.75 -17.8125 
Q 21.140625 -20.796875 15.09375 -20.796875 
L 7.90625 -20.796875 
L 7.90625 -13.28125 
L 13.1875 -13.28125 
Q 16.890625 -13.28125 18.9375 -11.515625 
Q 21 -9.765625 23.484375 -3.21875 
L 25.09375 0.875 
L 2.984375 54.6875 
L 12.5 54.6875 
L 29.59375 11.921875 
L 46.6875 54.6875 
L 56.203125 54.6875 
z
" id="DejaVuSans-121"/>
       <path d="M 59.515625 10.40625 
L 59.515625 29.984375 
L 43.40625 29.984375 
L 43.40625 38.09375 
L 69.28125 38.09375 
L 69.28125 6.78125 
Q 63.578125 2.734375 56.6875 0.65625 
Q 49.8125 -1.421875 42 -1.421875 
Q 24.90625 -1.421875 15.25 8.5625 
Q 5.609375 18.5625 5.609375 36.375 
Q 5.609375 54.25 15.25 64.234375 
Q 24.90625 74.21875 42 74.21875 
Q 49.125 74.21875 55.546875 72.453125 
Q 61.96875 70.703125 67.390625 67.28125 
L 67.390625 56.78125 
Q 61.921875 61.421875 55.765625 63.765625 
Q 49.609375 66.109375 42.828125 66.109375 
Q 29.4375 66.109375 22.71875 58.640625 
Q 16.015625 51.171875 16.015625 36.375 
Q 16.015625 21.625 22.71875 14.15625 
Q 29.4375 6.6875 42.828125 6.6875 
Q 48.046875 6.6875 52.140625 7.59375 
Q 56.25 8.5 59.515625 10.40625 
z
" id="DejaVuSans-71"/>
       <path d="M 9.8125 72.90625 
L 19.671875 72.90625 
L 19.671875 43.015625 
L 55.515625 43.015625 
L 55.515625 72.90625 
L 65.375 72.90625 
L 65.375 0 
L 55.515625 0 
L 55.515625 34.71875 
L 19.671875 34.71875 
L 19.671875 0 
L 9.8125 0 
z
" id="DejaVuSans-72"/>
       <path d="M 5.515625 54.6875 
L 48.1875 54.6875 
L 48.1875 46.484375 
L 14.40625 7.171875 
L 48.1875 7.171875 
L 48.1875 0 
L 4.296875 0 
L 4.296875 8.203125 
L 38.09375 47.515625 
L 5.515625 47.515625 
z
" id="DejaVuSans-122"/>
      </defs>
      <use xlink:href="#DejaVuSans-70"/>
      <use x="50.269531" xlink:href="#DejaVuSans-114"/>
      <use x="89.132812" xlink:href="#DejaVuSans-101"/>
      <use x="150.65625" xlink:href="#DejaVuSans-113"/>
      <use x="214.132812" xlink:href="#DejaVuSans-117"/>
      <use x="277.511719" xlink:href="#DejaVuSans-101"/>
      <use x="339.035156" xlink:href="#DejaVuSans-110"/>
      <use x="402.414062" xlink:href="#DejaVuSans-99"/>
      <use x="457.394531" xlink:href="#DejaVuSans-121"/>
      <use x="516.574219" xlink:href="#DejaVuSans-32"/>
      <use x="548.361328" xlink:href="#DejaVuSans-40"/>
      <use x="587.375" xlink:href="#DejaVuSans-71"/>
      <use x="664.865234" xlink:href="#DejaVuSans-72"/>
      <use x="740.060547" xlink:href="#DejaVuSans-122"/>
      <use x="792.550781" xlink:href="#DejaVuSans-41"/>
     </g>
    </g>
   </g>
   <g id="patch_8">
    <path d="M 361.152 307.584 
L 361.152 289.8432 
L 361.152 59.2128 
L 361.152 41.472 
L 374.4576 41.472 
L 374.4576 59.2128 
L 374.4576 289.8432 
L 374.4576 307.584 
z
" style="fill:none;stroke:#000000;stroke-linejoin:miter;stroke-width:0.8;"/>
   </g>
  </g>
 </g>
 <defs>
  <clipPath id="peaab844a6f">
   <rect height="266.112" width="285.696" x="57.6" y="41.472"/>
  </clipPath>
  <clipPath id="p4b5cb3cee7">
   <rect height="266.112" width="13.3056" x="361.152" y="41.472"/>
  </clipPath>
 </defs>
</svg>
