<svg id="antenna" width="100mm" height="25mm" version="1.1" viewBox="0 0 100 25" xmlns="http://www.w3.org/2000/svg" xmlns:xlink="http://www.w3.org/1999/xlink">
 <defs>
  <linearGradient id="a" x1="101.5" x2="112.65" y1="101.21" y2="101.21" gradientTransform="matrix(1.1223,0,0,1.2246,-14.869,-4.8265)" gradientUnits="userSpaceOnUse">
   <stop style="stop-color:#f60" offset="0"/>
   <stop style="stop-color:#b50000" offset="1"/>
  </linearGradient>
  <linearGradient id="b" x1="36.839" x2="47.828" y1="101.21" y2="101.21" gradientTransform="matrix(1.1223 0 0 1.2246 -6.6383 -2.5344)" gradientUnits="userSpaceOnUse">
   <stop style="stop-color:#005c94" offset="0"/>
   <stop style="stop-color:#009100" offset="1"/>
  </linearGradient>
 </defs>
 <g transform="matrix(1 0 0 1.0279 -24.935 -106.35)">
  <g id="tx" transform="matrix(1.236 0 0 1.3487 .69077 -18.24)">
   <path d="m31.768 102.36-11.941 5.7454v-11.491l5.9708 2.8727z" style="fill:#19aeff;stroke-linejoin:round;stroke-width:.36623;stroke:#005c94"/>
   <text x="21.302406" y="103.92289" style="fill:#ffffff;font-family:sans-serif;font-size:8.922px;letter-spacing:0px;line-height:1.25;stroke-width:.22304;word-spacing:0px" xml:space="preserve"><tspan x="21.302406" y="103.92289" style="fill:#ffffff;font-size:4.1635px;stroke-width:.22304">Tx</tspan></text>
  </g>
  <g id="line-tx" transform="matrix(1.2574 0 0 1 -3.9287 -1.604)" style="paint-order:stroke fill markers">
   <path d="m34.935 121.41h11.878" style="fill:#ba00ff;paint-order:stroke fill markers;stroke-linejoin:round;stroke-width:.46895;stroke:url(#b)"/>
  </g>
  <g id="antenna-tx" transform="matrix(1.1223 0 0 1.2246 -5.9383 -4.1198)" style="fill:none;stroke-linecap:round;stroke-linejoin:round;stroke-width:.4;stroke:#009100">
   <path d="m54.24 101.21v-13.122" style="fill:none;stroke-linecap:round;stroke-linejoin:round;stroke-width:.4;stroke:#009100"/>
   <path d="m50.271 88.088 3.9688 6.8792" style="fill:none;stroke-linecap:round;stroke-linejoin:round;stroke-width:.4;stroke:#009100"/>
   <path d="m58.208 88.088-3.9688 6.8792" style="fill:none;stroke-linecap:round;stroke-linejoin:round;stroke-width:.4;stroke:#009100"/>
  </g>
  <g id="antenna-rx" transform="matrix(-1.1223 0 0 1.2246 155.81 -4.1437)" style="fill:none;stroke-linecap:round;stroke-linejoin:round;stroke-width:.4;stroke:#f60">
   <g style="stroke:#f60">
    <g style="stroke:#f60">
     <path d="m54.24 101.21v-13.117" style="fill:none;stroke-linecap:round;stroke-linejoin:round;stroke-width:.4;stroke:#f60"/>
     <path d="m50.271 88.086 3.9688 6.8792" style="fill:none;stroke-linecap:round;stroke-linejoin:round;stroke-width:.4;stroke:#f60"/>
     <path d="m58.208 88.086-3.9688 6.8792" style="fill:none;stroke-linecap:round;stroke-linejoin:round;stroke-width:.4;stroke:#f60"/>
    </g>
   </g>
  </g>
  <g id="line-rx" transform="matrix(1.2451 0 0 1 -28.676 .67803)">
   <path d="m111.34 119.12h-12.06" style="fill:#ba00ff;stroke-width:.46895;stroke:url(#a)"/>
  </g>
  <g id="rx" transform="translate(1.7596 -.25208)">
   <g transform="matrix(-1.236 0 0 1.3487 147.46 -17.998)" style="fill:#ff4141;stroke:#b50000">
    <path d="m31.768 102.36-11.941 5.7454v-11.491l5.9708 2.8727z" style="fill:#ff4141;stroke-linejoin:round;stroke-width:.36623;stroke:#b50000"/>
   </g>
   <text x="115.42167" y="121.30454" style="fill:#ffffff;font-family:sans-serif;font-size:8.922px;letter-spacing:0px;line-height:1.25;stroke-width:.22304;word-spacing:0px" xml:space="preserve"><tspan x="115.42167" y="121.30454" style="fill:#ffffff;font-size:4.1635px;stroke-width:.22304">Rx</tspan></text>
  </g>
 </g>
</svg>
