<?xml version="1.0" encoding="UTF-8" standalone="no"?>
<!DOCTYPE svg PUBLIC "-//W3C//DTD SVG 1.1//EN"
 "http://www.w3.org/Graphics/SVG/1.1/DTD/svg11.dtd">
<!-- Generated by graphviz version 2.47.3 (20210619.1520)
 -->
<!-- Title: dependencies Pages: 1 -->
<svg width="388pt" height="247pt"
 viewBox="0.00 0.00 388.00 246.80" xmlns="http://www.w3.org/2000/svg" xmlns:xlink="http://www.w3.org/1999/xlink">
<g id="graph0" class="graph" transform="scale(1 1) rotate(0) translate(4 242.8)">
<title>dependencies</title>
<polygon fill="white" stroke="transparent" points="-4,4 -4,-242.8 384,-242.8 384,4 -4,4"/>
<text text-anchor="middle" x="190" y="-8.2" font-family="sans-serif" font-size="14.00">dependencies</text>
<g id="clust1" class="cluster">
<title>cluster_SimpleDocumentationModule</title>
<polygon fill="none" stroke="black" stroke-dasharray="1,5" points="8,-32.8 8,-230.8 372,-230.8 372,-32.8 8,-32.8"/>
</g>
<g id="clust4" class="cluster">
<title>cluster_SimpleDocumentationModule_imports</title>
<polygon fill="none" stroke="black" points="248,-40.8 248,-92.8 364,-92.8 364,-40.8 248,-40.8"/>
</g>
<g id="clust5" class="cluster">
<title>cluster_SimpleDocumentationModule_exports</title>
<polygon fill="none" stroke="black" points="77,-170.8 77,-222.8 303,-222.8 303,-170.8 77,-170.8"/>
</g>
<g id="clust2" class="cluster">
<title>cluster_SimpleDocumentationModule_declarations</title>
<polygon fill="none" stroke="black" points="16,-40.8 16,-92.8 240,-92.8 240,-40.8 16,-40.8"/>
</g>
<!-- SimpleDocumentationComponent -->
<g id="node1" class="node">
<title>SimpleDocumentationComponent</title>
<polygon fill="#ffffb3" stroke="black" points="231.81,-84.8 24.19,-84.8 24.19,-48.8 231.81,-48.8 231.81,-84.8"/>
<text text-anchor="middle" x="128" y="-62.6" font-family="Times,serif" font-size="14.00">SimpleDocumentationComponent</text>
</g>
<!-- SimpleDocumentationModule -->
<g id="node2" class="node">
<title>SimpleDocumentationModule</title>
<polygon fill="#8dd3c7" stroke="black" points="282.53,-149.8 279.53,-153.8 258.53,-153.8 255.53,-149.8 97.47,-149.8 97.47,-113.8 282.53,-113.8 282.53,-149.8"/>
<text text-anchor="middle" x="190" y="-127.6" font-family="Times,serif" font-size="14.00">SimpleDocumentationModule</text>
</g>
<!-- SimpleDocumentationComponent&#45;&gt;SimpleDocumentationModule -->
<g id="edge1" class="edge">
<title>SimpleDocumentationComponent&#45;&gt;SimpleDocumentationModule</title>
<path fill="none" stroke="black" d="M164.45,-84.91C164.45,-84.91 164.45,-103.79 164.45,-103.79"/>
<polygon fill="black" stroke="black" points="160.95,-103.79 164.45,-113.79 167.95,-103.79 160.95,-103.79"/>
</g>
<!-- SimpleDocumentationComponent  -->
<g id="node4" class="node">
<title>SimpleDocumentationComponent </title>
<polygon fill="#fb8072" stroke="black" points="295.31,-214.8 84.69,-214.8 84.69,-178.8 295.31,-178.8 295.31,-214.8"/>
<text text-anchor="middle" x="190" y="-192.6" font-family="Times,serif" font-size="14.00">SimpleDocumentationComponent </text>
</g>
<!-- SimpleDocumentationModule&#45;&gt;SimpleDocumentationComponent  -->
<g id="edge3" class="edge">
<title>SimpleDocumentationModule&#45;&gt;SimpleDocumentationComponent </title>
<path fill="none" stroke="black" stroke-dasharray="5,2" d="M190,-149.91C190,-149.91 190,-168.79 190,-168.79"/>
<polygon fill="black" stroke="black" points="186.5,-168.79 190,-178.79 193.5,-168.79 186.5,-168.79"/>
</g>
<!-- LoggerModule -->
<g id="node3" class="node">
<title>LoggerModule</title>
<polygon fill="#8dd3c7" stroke="black" points="355.98,-84.8 352.98,-88.8 331.98,-88.8 328.98,-84.8 256.02,-84.8 256.02,-48.8 355.98,-48.8 355.98,-84.8"/>
<text text-anchor="middle" x="306" y="-62.6" font-family="Times,serif" font-size="14.00">LoggerModule</text>
</g>
<!-- LoggerModule&#45;&gt;SimpleDocumentationModule -->
<g id="edge2" class="edge">
<title>LoggerModule&#45;&gt;SimpleDocumentationModule</title>
<path fill="none" stroke="black" d="M269.39,-84.91C269.39,-84.91 269.39,-103.79 269.39,-103.79"/>
<polygon fill="black" stroke="black" points="265.89,-103.79 269.39,-113.79 272.89,-103.79 265.89,-103.79"/>
</g>
</g>
</svg>
