<?xml version="1.0" encoding="UTF-8" standalone="no"?>
<svg
   xmlns:dc="http://purl.org/dc/elements/1.1/"
   xmlns:cc="http://creativecommons.org/ns#"
   xmlns:rdf="http://www.w3.org/1999/02/22-rdf-syntax-ns#"
   xmlns:svg="http://www.w3.org/2000/svg"
   xmlns="http://www.w3.org/2000/svg"
   xmlns:sodipodi="http://sodipodi.sourceforge.net/DTD/sodipodi-0.dtd"
   xmlns:inkscape="http://www.inkscape.org/namespaces/inkscape"
   id="antenna"
   width="80mm"
   height="25mm"
   version="1.1"
   viewBox="0 0 302.36437 94.488"
   sodipodi:docname="diagram_tx_inkscape.svg"
   inkscape:version="0.92.3 (2405546, 2018-03-11)">
  <metadata
     id="metadata87">
    <rdf:RDF>
      <cc:Work
         rdf:about="">
        <dc:format>image/svg+xml</dc:format>
        <dc:type
           rdf:resource="http://purl.org/dc/dcmitype/StillImage" />
        <dc:title></dc:title>
      </cc:Work>
    </rdf:RDF>
  </metadata>
  <sodipodi:namedview
     pagecolor="#ffffff"
     bordercolor="#666666"
     borderopacity="1"
     objecttolerance="10"
     gridtolerance="10"
     guidetolerance="10"
     inkscape:pageopacity="0"
     inkscape:pageshadow="2"
     inkscape:window-width="1920"
     inkscape:window-height="1047"
     id="namedview85"
     showgrid="false"
     inkscape:zoom="0.83196759"
     inkscape:cx="-376.97689"
     inkscape:cy="451.91599"
     inkscape:window-x="0"
     inkscape:window-y="0"
     inkscape:window-maximized="1"
     inkscape:current-layer="g82" />
  <defs
     id="defs8">
    <marker
       inkscape:stockid="Arrow2Sstart"
       orient="auto"
       refY="0.0"
       refX="0.0"
       id="Arrow2Sstart"
       style="overflow:visible"
       inkscape:isstock="true">
      <path
         id="path963"
         style="fill-rule:evenodd;stroke-width:0.625;stroke-linejoin:round;stroke:#c83737;stroke-opacity:1;fill:#c83737;fill-opacity:1"
         d="M 8.7185878,4.0337352 L -2.2072895,0.016013256 L 8.7185884,-4.0017078 C 6.9730900,-1.6296469 6.9831476,1.6157441 8.7185878,4.0337352 z "
         transform="scale(0.3) translate(-2.3,0)" />
    </marker>
    <marker
       inkscape:stockid="Arrow2Send"
       orient="auto"
       refY="0.0"
       refX="0.0"
       id="marker1482"
       style="overflow:visible;"
       inkscape:isstock="true">
      <path
         id="path1480"
         style="fill-rule:evenodd;stroke-width:0.625;stroke-linejoin:round;stroke:#c83737;stroke-opacity:1;fill:#c83737;fill-opacity:1"
         d="M 8.7185878,4.0337352 L -2.2072895,0.016013256 L 8.7185884,-4.0017078 C 6.9730900,-1.6296469 6.9831476,1.6157441 8.7185878,4.0337352 z "
         transform="scale(0.3) rotate(180) translate(-2.3,0)" />
    </marker>
    <marker
       inkscape:stockid="Arrow2Send"
       orient="auto"
       refY="0.0"
       refX="0.0"
       id="marker1418"
       style="overflow:visible;"
       inkscape:isstock="true">
      <path
         id="path966"
         style="fill-rule:evenodd;stroke-width:0.625;stroke-linejoin:round;stroke:#c83737;stroke-opacity:1;fill:#c83737;fill-opacity:1"
         d="M 8.7185878,4.0337352 L -2.2072895,0.016013256 L 8.7185884,-4.0017078 C 6.9730900,-1.6296469 6.9831476,1.6157441 8.7185878,4.0337352 z "
         transform="scale(0.3) rotate(180) translate(-2.3,0)" />
    </marker>
    <marker
       inkscape:stockid="Arrow1Send"
       orient="auto"
       refY="0.0"
       refX="0.0"
       id="marker1361"
       style="overflow:visible;"
       inkscape:isstock="true">
      <path
         id="path1359"
         d="M 0.0,0.0 L 5.0,-5.0 L -12.5,0.0 L 5.0,5.0 L 0.0,0.0 z "
         style="fill-rule:evenodd;stroke:#c83737;stroke-width:1pt;stroke-opacity:1;fill:#c83737;fill-opacity:1"
         transform="scale(0.2) rotate(180) translate(6,0)" />
    </marker>
    <marker
       inkscape:stockid="Arrow1Send"
       orient="auto"
       refY="0.0"
       refX="0.0"
       id="Arrow1Send"
       style="overflow:visible;"
       inkscape:isstock="true">
      <path
         id="path948"
         d="M 0.0,0.0 L 5.0,-5.0 L -12.5,0.0 L 5.0,5.0 L 0.0,0.0 z "
         style="fill-rule:evenodd;stroke:#c83737;stroke-width:1pt;stroke-opacity:1;fill:#c83737;fill-opacity:1"
         transform="scale(0.2) rotate(180) translate(6,0)" />
    </marker>
    <marker
       inkscape:stockid="Arrow2Mstart"
       orient="auto"
       refY="0.0"
       refX="0.0"
       id="Arrow2Mstart"
       style="overflow:visible"
       inkscape:isstock="true">
      <path
         id="path957"
         style="fill-rule:evenodd;stroke-width:0.625;stroke-linejoin:round;stroke:#c83737;stroke-opacity:1;fill:#c83737;fill-opacity:1"
         d="M 8.7185878,4.0337352 L -2.2072895,0.016013256 L 8.7185884,-4.0017078 C 6.9730900,-1.6296469 6.9831476,1.6157441 8.7185878,4.0337352 z "
         transform="scale(0.6) translate(0,0)" />
    </marker>
    <marker
       inkscape:stockid="Arrow2Lstart"
       orient="auto"
       refY="0.0"
       refX="0.0"
       id="Arrow2Lstart"
       style="overflow:visible"
       inkscape:isstock="true">
      <path
         id="path951"
         style="fill-rule:evenodd;stroke-width:0.625;stroke-linejoin:round;stroke:#c83737;stroke-opacity:1;fill:#c83737;fill-opacity:1"
         d="M 8.7185878,4.0337352 L -2.2072895,0.016013256 L 8.7185884,-4.0017078 C 6.9730900,-1.6296469 6.9831476,1.6157441 8.7185878,4.0337352 z "
         transform="scale(1.1) translate(1,0)" />
    </marker>
    <marker
       inkscape:stockid="Arrow1Mend"
       orient="auto"
       refY="0.0"
       refX="0.0"
       id="Arrow1Mend"
       style="overflow:visible;"
       inkscape:isstock="true">
      <path
         id="path942"
         d="M 0.0,0.0 L 5.0,-5.0 L -12.5,0.0 L 5.0,5.0 L 0.0,0.0 z "
         style="fill-rule:evenodd;stroke:#c83737;stroke-width:1pt;stroke-opacity:1;fill:#c83737;fill-opacity:1"
         transform="scale(0.4) rotate(180) translate(10,0)" />
    </marker>
    <marker
       id="Arrow2Send"
       style="overflow:visible"
       orient="auto">
      <path
         transform="matrix(-0.3,0,0,-0.3,0.69,0)"
         d="M 8.7186,4.0337 -2.2074,0.016 8.7186,-4.0017 c -1.7455,2.3721 -1.7354,5.6175 0,8.0354 z"
         style="fill:#c83737;fill-rule:evenodd;stroke:#c83737;stroke-width:0.625;stroke-linejoin:round"
         id="path2"
         inkscape:connector-curvature="0" />
    </marker>
    <marker
       id="a"
       style="overflow:visible"
       orient="auto">
      <path
         transform="matrix(0.3,0,0,0.3,-0.69,0)"
         d="M 8.7186,4.0337 -2.2074,0.016 8.7186,-4.0017 c -1.7455,2.3721 -1.7354,5.6175 0,8.0354 z"
         style="fill:#c83737;fill-rule:evenodd;stroke:#c83737;stroke-width:0.625;stroke-linejoin:round"
         id="path5"
         inkscape:connector-curvature="0" />
    </marker>
  </defs>
  <g
     transform="matrix(1,0,0,1.0279,-24.971,-102.43)"
     id="g82">
    <path
       d="m 79.364,162.81 -53.49,27.974 v -55.947 l 26.746,13.987 z"
       style="fill:#19aeff;stroke:#005c94;stroke-width:1.71029997;stroke-linejoin:round"
       id="path10"
       inkscape:connector-curvature="0" />
    <text
       transform="scale(0.95917,1.0426)"
       x="33.86866"
       y="163.47594"
       style="font-size:41.66699982px;line-height:1.25;font-family:sans-serif;letter-spacing:0px;word-spacing:0px;fill:#ffffff;stroke-width:1.04159999"
       xml:space="preserve"
       id="text14"><tspan
         x="33.86866"
         y="163.47594"
         style="font-size:19.44400024px;fill:#ffffff;stroke-width:1.04159999"
         id="tspan12">Tx</tspan></text>
    <g
       id="line-tx"
       transform="matrix(16.008,0,0,3.61,-479.73,-275.49)"
       style="paint-order:stroke fill markers">
      <path
         d="m 34.925,121.41 12.243069,0.0136"
         style="fill:#009100;stroke:#009100;stroke-width:0.64873999"
         id="path16"
         inkscape:connector-curvature="0"
         sodipodi:nodetypes="cc" />
    </g>
    <g
       id="antenna-tx"
       transform="matrix(4.0672,0,0,4.4208,54.731526,-284.58)"
       style="fill:none;stroke:#009100;stroke-width:0.40000001;stroke-linecap:round;stroke-linejoin:round">
      <path
         d="M 54.24,101.21 V 88.088"
         style="fill:none;stroke:#009100;stroke-width:0.40002999;stroke-linecap:round;stroke-linejoin:miter"
         id="path19"
         inkscape:connector-curvature="0" />
      <path
         d="m 50.271,88.088 3.9688,6.8792"
         style="fill:none;stroke:#009100;stroke-width:0.40000001;stroke-linecap:round;stroke-linejoin:round"
         id="path21"
         inkscape:connector-curvature="0" />
      <path
         d="m 58.208,88.088 -3.9688,6.8792"
         style="fill:none;stroke:#009100;stroke-width:0.40000001;stroke-linecap:round;stroke-linejoin:round"
         id="path23"
         inkscape:connector-curvature="0" />
    </g>
    <rect
       x="103.26"
       y="145.82001"
       width="48.507"
       height="33.346001"
       style="fill:#006680;stroke:#364e59;stroke-width:1.25769997;stroke-linecap:square"
       id="rect26" />
    <rect
       x="188.00999"
       y="145.82001"
       width="48.507"
       height="33.346001"
       style="fill:#006680;stroke:#364e59;stroke-width:1.25769997;stroke-linecap:square"
       id="rect28" />
    <text
       transform="scale(1.0158,0.98444)"
       x="110.38757"
       y="169.47885"
       style="font-size:12.58600044px;line-height:1.25;font-family:sans-serif;letter-spacing:0px;word-spacing:0px;fill:#ffffff;stroke-width:0.94393998"
       xml:space="preserve"
       id="text34"><tspan
         x="110.38757"
         y="169.47885"
         style="stroke-width:0.94393998"
         id="tspan32"><tspan
           x="110.38757"
           y="169.47885"
           style="stroke-width:0.94393998"
           id="tspan30">Filter</tspan></tspan></text>
    <g
       transform="matrix(0.95886,0,0,0.92925,107.65,95.665)"
       style="fill:#ffffff"
       aria-label="Other in-line devices"
       id="g74">
      <path
         d="m 92.632,65.239 q 0,0.86328 -0.33203,1.5117 -0.32812,0.64844 -0.94531,0.99609 -0.61719,0.34766 -1.457,0.34766 -0.84766,0 -1.4648,-0.34375 -0.61328,-0.34375 -0.9375,-0.99219 -0.32422,-0.65234 -0.32422,-1.5195 0,-1.3203 0.72266,-2.0625 0.72266,-0.74609 2.0117,-0.74609 0.83984,0 1.457,0.33594 0.61719,0.33203 0.94141,0.96875 0.32812,0.63672 0.32812,1.5039 z m -0.76172,0 q 0,-1.0273 -0.51562,-1.6133 -0.51172,-0.58594 -1.4492,-0.58594 -0.94531,0 -1.4609,0.57812 -0.51559,0.57812 -0.51562,1.6211 0,1.0352 0.51953,1.6445 0.52344,0.60547 1.4492,0.60547 0.95312,0 1.4609,-0.58594 0.51172,-0.58984 0.51172,-1.6641 z"
         id="path36"
         inkscape:connector-curvature="0" />
      <path
         d="m 95.175,67.985 q -0.34766,0.09375 -0.71094,0.09375 -0.84375,0 -0.84375,-0.95703 v -2.8203 H 93.13203 V 63.7897 h 0.51562 l 0.20703,-0.94531 h 0.46875 v 0.94531 h 0.78125 v 0.51172 h -0.78125 v 2.668 q 0,0.30469 0.09766,0.42969 0.10156,0.12109 0.34766,0.12109 0.14062,0 0.40625,-0.05469 z"
         id="path38"
         inkscape:connector-curvature="0" />
      <path
         d="m 96.468,64.512 q 0.22656,-0.41406 0.54297,-0.60547 0.32031,-0.19531 0.80859,-0.19531 0.6875,0 1.0117,0.34375 0.32812,0.33984 0.32812,1.1445 v 2.8164 h -0.70703 v -2.6797 q 0,-0.44531 -0.08203,-0.66016 -0.08203,-0.21875 -0.26953,-0.32031 -0.1875,-0.10156 -0.51953,-0.10156 -0.49609,0 -0.79688,0.34375 -0.29688,0.34375 -0.29688,0.92578 v 2.4922 h -0.70313 v -5.7969 h 0.70312 v 1.5078 q 0,0.23828 -0.01563,0.49219 -0.01172,0.25391 -0.01563,0.29297 z"
         id="path40"
         inkscape:connector-curvature="0" />
      <path
         d="m 100.76,66.051 q 0,0.72656 0.30078,1.1211 0.30078,0.39454 0.87891,0.39453 0.45703,0 0.73047,-0.18359 0.27734,-0.18359 0.375,-0.46484 l 0.61719,0.17578 q -0.37891,1 -1.7227,1 -0.9375,0 -1.4297,-0.55859 -0.48828,-0.55859 -0.48828,-1.6602 0,-1.0469 0.48828,-1.6055 0.49219,-0.55859 1.4024,-0.55859 1.8633,0 1.8633,2.2461 v 0.09375 z m 2.2891,-0.53906 q -0.0586,-0.66797 -0.33984,-0.97266 -0.28125,-0.30859 -0.80859,-0.30859 -0.51172,0 -0.8125,0.34375 -0.29688,0.33984 -0.32032,0.9375 z"
         id="path42"
         inkscape:connector-curvature="0" />
      <path
         d="m 104.69,68.016 v -3.2422 q 0,-0.44531 -0.0234,-0.98438 h 0.66406 q 0.0312,0.71875 0.0312,0.86328 h 0.0156 q 0.16797,-0.54297 0.38672,-0.74219 0.21875,-0.19922 0.61719,-0.19922 0.14062,0 0.28515,0.03906 v 0.64453 q -0.14062,-0.03906 -0.375,-0.03906 -0.4375,0 -0.66797,0.37891 -0.23047,0.375 -0.23047,1.0781 v 2.2031 z"
         id="path44"
         inkscape:connector-curvature="0" />
      <path
         d="m 109.56,62.891 v -0.67188 h 0.70313 V 62.891 Z m 0,5.125 v -4.2266 h 0.70313 v 4.2266 z"
         id="path46"
         inkscape:connector-curvature="0" />
      <path
         d="m 114.03,68.016 v -2.6797 q 0,-0.41797 -0.082,-0.64844 -0.082,-0.23047 -0.26172,-0.33203 -0.17968,-0.10156 -0.52734,-0.10156 -0.50781,0 -0.80078,0.34766 -0.29297,0.34766 -0.29297,0.96484 v 2.4492 h -0.70313 v -3.3242 q 0,-0.73828 -0.0234,-0.90234 h 0.66406 q 0.004,0.01953 0.008,0.10547 0.004,0.08594 0.008,0.19922 0.008,0.10938 0.0156,0.41797 h 0.0117 q 0.24219,-0.4375 0.55859,-0.61719 0.32031,-0.18359 0.79297,-0.18359 0.69531,0 1.0156,0.34766 0.32421,0.34375 0.32421,1.1406 v 2.8164 z"
         id="path48"
         inkscape:connector-curvature="0" />
      <path
         d="m 115.62,66.203 v -0.625 h 1.9531 v 0.625 z"
         id="path50"
         inkscape:connector-curvature="0" />
      <path
         d="m 118.47,68.016 v -5.7969 h 0.70312 v 5.7969 z"
         id="path52"
         inkscape:connector-curvature="0" />
      <path
         d="m 120.25,62.891 v -0.67188 h 0.70313 V 62.891 Z m 0,5.125 v -4.2266 h 0.70313 v 4.2266 z"
         id="path54"
         inkscape:connector-curvature="0" />
      <path
         d="m 124.72,68.016 v -2.6797 q 0,-0.41797 -0.082,-0.64844 -0.082,-0.23047 -0.26172,-0.33203 -0.17968,-0.10156 -0.52734,-0.10156 -0.50781,0 -0.80078,0.34766 -0.29297,0.34766 -0.29297,0.96484 v 2.4492 h -0.70313 v -3.3242 q 0,-0.73828 -0.0234,-0.90234 h 0.66406 q 0.004,0.01953 0.008,0.10547 0.004,0.08594 0.008,0.19922 0.008,0.10938 0.0156,0.41797 h 0.0117 q 0.24219,-0.4375 0.55859,-0.61719 0.32031,-0.18359 0.79297,-0.18359 0.69531,0 1.0156,0.34766 0.32421,0.34375 0.32421,1.1406 v 2.8164 z"
         id="path56"
         inkscape:connector-curvature="0" />
      <path
         d="m 127.03,66.051 q 0,0.72656 0.30078,1.1211 0.30078,0.39454 0.8789,0.39453 0.45704,0 0.73047,-0.18359 0.27735,-0.18359 0.375,-0.46484 l 0.61719,0.17578 q -0.37891,1 -1.7227,1 -0.9375,0 -1.4297,-0.55859 -0.48828,-0.55859 -0.48828,-1.6602 0,-1.0469 0.48828,-1.6055 0.49218,-0.55859 1.4023,-0.55859 1.8633,0 1.8633,2.2461 v 0.09375 z m 2.2891,-0.53906 q -0.0586,-0.66797 -0.33984,-0.97266 -0.28125,-0.30859 -0.8086,-0.30859 -0.51172,0 -0.8125,0.34375 -0.29687,0.33984 -0.32031,0.9375 z"
         id="path58"
         inkscape:connector-curvature="0" />
      <path
         d="m 98.233,84.003 q -0.19531,0.40625 -0.51953,0.58203 -0.32031,0.17578 -0.79688,0.17578 -0.80078,0 -1.1797,-0.53906 -0.375,-0.53906 -0.375,-1.6328 0,-2.2109 1.5547,-2.2109 0.48047,0 0.80078,0.17578 0.32031,0.17578 0.51562,0.55859 h 0.0078 l -0.0078,-0.47266 v -1.7539 h 0.70312 v 4.9258 q 0,0.66016 0.02344,0.87109 h -0.67188 q -0.01172,-0.0625 -0.02734,-0.28906 -0.01172,-0.22656 -0.01172,-0.39062 z m -2.1328,-1.4375 q 0,0.88672 0.23438,1.2695 0.23438,0.38281 0.76172,0.38281 0.59766,0 0.86719,-0.41406 0.26953,-0.41406 0.26953,-1.2852 0,-0.83984 -0.26953,-1.2305 -0.26953,-0.39066 -0.85938,-0.39062 -0.53125,0 -0.76953,0.39453 -0.23438,0.39062 -0.23438,1.2734 z"
         id="path60"
         inkscape:connector-curvature="0" />
      <path
         d="m 100.56,82.718 q 0,0.72656 0.30078,1.1211 0.30078,0.39454 0.8789,0.39453 0.45704,0 0.73047,-0.18359 0.27735,-0.18359 0.375,-0.46484 l 0.61719,0.17578 q -0.37891,1 -1.7227,1 -0.9375,0 -1.4297,-0.55859 -0.48828,-0.55859 -0.48828,-1.6602 0,-1.0469 0.48828,-1.6055 0.49218,-0.55859 1.4023,-0.55859 1.8633,0 1.8633,2.2461 v 0.09375 z m 2.2891,-0.53906 q -0.0586,-0.66797 -0.33984,-0.97266 -0.28125,-0.30859 -0.8086,-0.30859 -0.51172,0 -0.8125,0.34375 -0.29687,0.33984 -0.32031,0.9375 z"
         id="path62"
         inkscape:connector-curvature="0" />
      <path
         d="m 106.33,84.683 h -0.83203 l -1.5352,-4.2266 h 0.75 l 0.92969,2.75 q 0.0508,0.15625 0.26953,0.92578 l 0.13672,-0.45703 0.15234,-0.46094 0.96094,-2.7578 h 0.74609 z"
         id="path64"
         inkscape:connector-curvature="0" />
      <path
         d="m 108.47,79.558 v -0.67188 h 0.70313 V 79.558 Z m 0,5.125 v -4.2266 h 0.70313 v 4.2266 z"
         id="path66"
         inkscape:connector-curvature="0" />
      <path
         d="m 110.79,82.55 q 0,0.84375 0.26562,1.25 0.26563,0.40625 0.80078,0.40625 0.375,0 0.625,-0.20312 0.25391,-0.20312 0.3125,-0.625 l 0.71094,0.04687 q -0.082,0.60938 -0.51953,0.97266 -0.4375,0.36328 -1.1094,0.36328 -0.88672,0 -1.3555,-0.55859 -0.46484,-0.5625 -0.46484,-1.6367 0,-1.0664 0.46875,-1.625 0.46875,-0.5625 1.3438,-0.5625 0.64844,0 1.0742,0.33594 0.42969,0.33594 0.53906,0.92578 l -0.72265,0.05469 q -0.0547,-0.35156 -0.27735,-0.55859 -0.22265,-0.20703 -0.63281,-0.20703 -0.55859,0 -0.80859,0.37109 -0.25,0.37109 -0.25,1.25 z"
         id="path68"
         inkscape:connector-curvature="0" />
      <path
         d="m 114.79,82.718 q 0,0.72656 0.30078,1.1211 0.30078,0.39454 0.87891,0.39453 0.45703,0 0.73047,-0.18359 0.27734,-0.18359 0.375,-0.46484 l 0.61719,0.17578 q -0.37891,1 -1.7227,1 -0.9375,0 -1.4297,-0.55859 -0.48828,-0.55859 -0.48828,-1.6602 0,-1.0469 0.48828,-1.6055 0.49219,-0.55859 1.4024,-0.55859 1.8633,0 1.8633,2.2461 v 0.09375 z m 2.2891,-0.53906 q -0.0586,-0.66797 -0.33984,-0.97266 -0.28125,-0.30859 -0.80859,-0.30859 -0.51172,0 -0.8125,0.34375 -0.29688,0.33984 -0.32032,0.9375 z"
         id="path70"
         inkscape:connector-curvature="0" />
      <path
         d="m 121.88,83.515 q 0,0.59766 -0.45313,0.92188 -0.44921,0.32422 -1.2617,0.32422 -0.78907,0 -1.2188,-0.25781 -0.42579,-0.26172 -0.55469,-0.8125 l 0.62109,-0.12109 q 0.0898,0.33984 0.3711,0.5 0.28125,0.15625 0.78125,0.15625 0.53515,0 0.78125,-0.16406 0.25,-0.16406 0.25,-0.49219 0,-0.25 -0.17188,-0.40625 -0.17187,-0.15625 -0.55469,-0.25781 l -0.5039,-0.13281 q -0.60547,-0.15625 -0.86328,-0.30469 -0.25391,-0.15234 -0.39844,-0.36719 -0.14453,-0.21485 -0.14453,-0.52734 0,-0.57812 0.41015,-0.87891 0.41407,-0.30469 1.2031,-0.30469 0.69922,0 1.1094,0.24609 0.41407,0.24609 0.52344,0.78906 l -0.63281,0.07813 q -0.0586,-0.28125 -0.31641,-0.42969 -0.2539,-0.15234 -0.68359,-0.15234 -0.47656,0 -0.70313,0.14453 -0.22656,0.14453 -0.22656,0.4375 0,0.17969 0.0937,0.29688 0.0937,0.11719 0.27734,0.19922 0.1836,0.08203 0.77344,0.22656 0.5586,0.14062 0.80469,0.26172 0.24609,0.11719 0.38672,0.26172 0.14453,0.14453 0.22265,0.33594 0.0781,0.1875 0.0781,0.42969 z"
         id="path72"
         inkscape:connector-curvature="0" />
    </g>
    <path
       d="m 281.42822,145.94028 v 16.133"
       style="fill:#c83737;stroke:#c83737;stroke-width:1.5919565;stroke-miterlimit:2;stroke-dasharray:none;marker-start:url(#Arrow2Sstart);marker-end:url(#marker1482)"
       id="path76"
       inkscape:connector-curvature="0" />
    <text
       transform="scale(1.0158,0.98444)"
       x="275.77902"
       y="157.34232"
       style="font-size:12.58600044px;line-height:1.25;font-family:sans-serif;letter-spacing:0px;word-spacing:0px;fill:#000000;stroke-width:0.94393998"
       xml:space="preserve"
       id="text80"><tspan
         x="275.77902"
         y="157.34232"
         style="font-size:10.06900024px;stroke-width:0.94393998"
         id="tspan78" /></text>
    <flowRoot
       xml:space="preserve"
       id="flowRoot913"
       style="font-style:normal;font-weight:normal;font-size:13.33333302px;line-height:0.60000002;font-family:sans-serif;text-align:center;letter-spacing:0px;word-spacing:0px;text-anchor:middle;fill:#000000;fill-opacity:1;stroke:none"
       transform="matrix(1.0000074,0,0,0.97286452,36.976222,100.26948)"><flowRegion
         id="flowRegion915"
         style="line-height:0.60000002;text-align:center;text-anchor:middle"><rect
           id="rect917"
           width="36.236279"
           height="35.432156"
           x="250.18715"
           y="46.307232"
           ry="0"
           style="line-height:0.60000002;text-align:center;text-anchor:middle" /></flowRegion><flowPara
         id="flowPara919"
         style="font-size:8px;line-height:0.60000002;text-align:center;text-anchor:middle">Antenna Mismatch</flowPara></flowRoot>  </g>
</svg>
