<svg id="antenna" width="100mm" height="25mm" version="1.1" viewBox="0 0 100 25" xmlns="http://www.w3.org/2000/svg" xmlns:xlink="http://www.w3.org/1999/xlink">
 <defs>
  <linearGradient id="b" x1="101.5" x2="112.65" y1="101.21" y2="101.21" gradientTransform="matrix(1.1223,0,0,1.2246,-14.869,-4.8265)" gradientUnits="userSpaceOnUse">
   <stop style="stop-color:#f60" offset="0"/>
   <stop style="stop-color:#b50000" offset="1"/>
  </linearGradient>
  <linearGradient id="a" x1="36.839" x2="47.828" y1="101.21" y2="101.21" gradientTransform="matrix(1.1223 0 0 1.2246 -6.6383 -2.5344)" gradientUnits="userSpaceOnUse">
   <stop style="stop-color:#005c94" offset="0"/>
   <stop style="stop-color:#009100" offset="1"/>
  </linearGradient>
 </defs>
 <g transform="matrix(1 0 0 1.0279 -24.935 -106.35)">
  <g id="tx" transform="matrix(-1.236 0 0 1.3487 149.22 -18.24)">
   <path d="m31.768 102.36-11.941 5.7454v-11.491l5.9708 2.8727z" style="fill:#19aeff;stroke-linejoin:round;stroke-width:.36623;stroke:#005c94"/>
   <text transform="scale(-1,1)" x="-25.978191" y="103.92289" style="fill:#ffffff;font-family:sans-serif;font-size:8.922px;letter-spacing:0px;line-height:1.25;stroke-width:.22304;word-spacing:0px" xml:space="preserve"><tspan x="-25.978191" y="103.92289" style="fill:#ffffff;font-size:4.1635px;stroke-width:.22304">Tx</tspan></text>
   <path d="m49.73 93.136c0.45514 1.8135 0.91028 2.9122 1.3654 2.0262 0.45514-0.88603 0.91028-3.1778 1.3654-3.851 0.45514-0.67321 0.91028 0.49987 1.3654 1.8248 0.45514 1.3249 0.91028 2.1271 1.3654 1.48 0.45514-0.64716 0.91028-2.321 1.3654-2.8128 0.45514-0.49171 0.91028 0.36511 1.3654 1.3328 0.45514 0.9677 0.91028 1.5536 1.3654 1.081 0.45514-0.47269 0.91028-1.6953 1.3654-2.0544 0.45514-0.35915 0.91028 0.26668 1.3654 0.97349 0.45514 0.70681 0.91028 1.1348 1.3654 0.78954 0.45514-0.34525 0.91028-1.2383 1.3654-1.5006 0.45514-0.26232 0.91028 0.19478 1.3654 0.71104 0.45514 0.51626 0.91028 0.82885 1.3654 0.57668 0.45514-0.25217 0.91028-0.90442 1.3654-1.096 0.45514-0.1916 0.91028 0.14227 1.3654 0.51934" style="fill:none;stroke-linecap:round;stroke-width:.38873;stroke:#364e59" title="5*sin(x)*exp(-0.05*x)"/>
  </g>
  <g id="line-tx" transform="matrix(-1.2574 0 0 1 153.84 -1.604)" style="paint-order:stroke fill markers">
   <path d="m34.935 121.41h11.878" style="fill:#ba00ff;paint-order:stroke fill markers;stroke-linejoin:round;stroke-width:.46895;stroke:url(#a)"/>
  </g>
  <g id="antenna-tx" transform="matrix(-1.1223 0 0 1.2246 155.85 -4.1198)" style="fill:none;stroke-linecap:round;stroke-linejoin:round;stroke-width:.4;stroke:#009100">
   <path d="m54.24 101.21v-13.122" style="fill:none;stroke-linecap:round;stroke-linejoin:round;stroke-width:.4;stroke:#009100"/>
   <path d="m50.271 88.088 3.9688 6.8792" style="fill:none;stroke-linecap:round;stroke-linejoin:round;stroke-width:.4;stroke:#009100"/>
   <path d="m58.208 88.088-3.9688 6.8792" style="fill:none;stroke-linecap:round;stroke-linejoin:round;stroke-width:.4;stroke:#009100"/>
  </g>
  <g id="antenna-rx" transform="matrix(1.1223 0 0 1.2246 -5.9006 -4.1437)" style="fill:none;stroke-linecap:round;stroke-linejoin:round;stroke-width:.4;stroke:#f60">
   <g style="stroke:#f60">
    <g style="stroke:#f60">
     <path d="m54.24 101.21v-13.117" style="fill:none;stroke-linecap:round;stroke-linejoin:round;stroke-width:.4;stroke:#f60"/>
     <path d="m50.271 88.086 3.9688 6.8792" style="fill:none;stroke-linecap:round;stroke-linejoin:round;stroke-width:.4;stroke:#f60"/>
     <path d="m58.208 88.086-3.9688 6.8792" style="fill:none;stroke-linecap:round;stroke-linejoin:round;stroke-width:.4;stroke:#f60"/>
    </g>
   </g>
  </g>
  <g id="line-rx" transform="matrix(-1.2451 0 0 1 178.58 .67803)">
   <path d="m111.34 119.12h-12.06" style="fill:#ba00ff;stroke-width:.46895;stroke:url(#b)"/>
  </g>
  <g id="rx" transform="matrix(-1 0 0 1 148.15 -.25208)">
   <g transform="matrix(-1.236 0 0 1.3487 147.46 -17.998)" style="fill:#ff4141;stroke:#b50000">
    <path d="m31.768 102.36-11.941 5.7454v-11.491l5.9708 2.8727z" style="fill:#ff4141;stroke-linejoin:round;stroke-width:.36623;stroke:#b50000"/>
   </g>
   <text transform="scale(-1,1)" x="-120.80899" y="121.30454" style="fill:#ffffff;font-family:sans-serif;font-size:8.922px;letter-spacing:0px;line-height:1.25;stroke-width:.22304;word-spacing:0px" xml:space="preserve"><tspan x="-120.80899" y="121.30454" style="fill:#ffffff;font-size:4.1635px;stroke-width:.22304">Rx</tspan></text>
  </g>
 </g>
</svg>
