<svg id="antenna" width="80mm" height="25mm" version="1.1" viewBox="0 0 302.36 94.488" xmlns="http://www.w3.org/2000/svg">
 <g transform="matrix(1,0,0,1.0279,-24.971,-102.43)">
  <text transform="scale(.95917 1.0426)" x="33.86866" y="163.47594" style="fill:#ffffff;font-family:sans-serif;font-size:41.667px;letter-spacing:0px;line-height:1.25;stroke-width:1.0416;word-spacing:0px" xml:space="preserve"><tspan x="33.86866" y="163.47594" style="fill:#ffffff;font-size:19.444px;stroke-width:1.0416">Tx</tspan></text>
  <g id="antenna-tx" transform="matrix(4.0672 0 0 4.4208 -160.92 -286.13)" style="fill:none;stroke-linecap:round;stroke-linejoin:round;stroke-width:.4;stroke:#f60">
   <path d="m54.24 101.21v-13.122" style="fill:none;stroke-linecap:round;stroke-linejoin:miter;stroke-width:.40003;stroke:#f60"/>
   <path d="m50.271 88.088 3.9688 6.8792" style="fill:none;stroke-linecap:round;stroke-linejoin:round;stroke-width:.4;stroke:#f60"/>
   <path d="m58.208 88.088-3.9688 6.8792" style="fill:none;stroke-linecap:round;stroke-linejoin:round;stroke-width:.4;stroke:#f60"/>
  </g>
  <path d="m270.69 161.35-211.01-0.0491" style="fill:none;stroke-width:2.17;stroke:#f60"/>
  <rect x="103.26" y="145.82" width="48.507" height="33.346" style="fill:#006680;stroke-linecap:square;stroke-width:1.2577;stroke:#364e59"/>
  <rect x="188.01" y="145.82" width="48.507" height="33.346" style="fill:#006680;stroke-linecap:square;stroke-width:1.2577;stroke:#364e59"/>
  <text transform="scale(1.0158 .98444)" x="110.38757" y="169.47885" style="fill:#ffffff;font-family:sans-serif;font-size:12.586px;letter-spacing:0px;line-height:1.25;stroke-width:.94394;word-spacing:0px" xml:space="preserve"><tspan x="110.38757" y="169.47885" style="stroke-width:.94394"><tspan x="110.38757" y="169.47885" style="stroke-width:.94394">Filter</tspan></tspan></text>
  <g transform="matrix(.95886 0 0 .92925 107.65 95.665)" style="fill:#fff" aria-label="Other in-line devices">
   <path d="m92.632 65.239q0 0.86328-0.33203 1.5117-0.32812 0.64844-0.94531 0.99609-0.61719 0.34766-1.457 0.34766-0.84766 0-1.4648-0.34375-0.61328-0.34375-0.9375-0.99219-0.32422-0.65234-0.32422-1.5195 0-1.3203 0.72266-2.0625 0.72266-0.74609 2.0117-0.74609 0.83984 0 1.457 0.33594 0.61719 0.33203 0.94141 0.96875 0.32812 0.63672 0.32812 1.5039zm-0.76172 0q0-1.0273-0.51562-1.6133-0.51172-0.58594-1.4492-0.58594-0.94531 0-1.4609 0.57812t-0.51562 1.6211q0 1.0352 0.51953 1.6445 0.52344 0.60547 1.4492 0.60547 0.95312 0 1.4609-0.58594 0.51172-0.58984 0.51172-1.6641z"/>
   <path d="m95.175 67.985q-0.34766 0.09375-0.71094 0.09375-0.84375 0-0.84375-0.95703v-2.8203h-0.48828v-0.51172h0.51562l0.20703-0.94531h0.46875v0.94531h0.78125v0.51172h-0.78125v2.668q0 0.30469 0.09766 0.42969 0.10156 0.12109 0.34766 0.12109 0.14062 0 0.40625-0.05469z"/>
   <path d="m96.468 64.512q0.22656-0.41406 0.54297-0.60547 0.32031-0.19531 0.80859-0.19531 0.6875 0 1.0117 0.34375 0.32812 0.33984 0.32812 1.1445v2.8164h-0.70703v-2.6797q0-0.44531-0.08203-0.66016-0.08203-0.21875-0.26953-0.32031t-0.51953-0.10156q-0.49609 0-0.79688 0.34375-0.29688 0.34375-0.29688 0.92578v2.4922h-0.70313v-5.7969h0.70312v1.5078q0 0.23828-0.01563 0.49219-0.01172 0.25391-0.01563 0.29297z"/>
   <path d="m100.76 66.051q0 0.72656 0.30078 1.1211t0.87891 0.39453q0.45703 0 0.73047-0.18359 0.27734-0.18359 0.375-0.46484l0.61719 0.17578q-0.37891 1-1.7227 1-0.9375 0-1.4297-0.55859-0.48828-0.55859-0.48828-1.6602 0-1.0469 0.48828-1.6055 0.49219-0.55859 1.4024-0.55859 1.8633 0 1.8633 2.2461v0.09375zm2.2891-0.53906q-0.0586-0.66797-0.33984-0.97266-0.28125-0.30859-0.80859-0.30859-0.51172 0-0.8125 0.34375-0.29688 0.33984-0.32032 0.9375z"/>
   <path d="m104.69 68.016v-3.2422q0-0.44531-0.0234-0.98438h0.66406q0.0312 0.71875 0.0312 0.86328h0.0156q0.16797-0.54297 0.38672-0.74219t0.61719-0.19922q0.14062 0 0.28515 0.03906v0.64453q-0.14062-0.03906-0.375-0.03906-0.4375 0-0.66797 0.37891-0.23047 0.375-0.23047 1.0781v2.2031z"/>
   <path d="m109.56 62.891v-0.67188h0.70313v0.67188zm0 5.125v-4.2266h0.70313v4.2266z"/>
   <path d="m114.03 68.016v-2.6797q0-0.41797-0.082-0.64844t-0.26172-0.33203q-0.17968-0.10156-0.52734-0.10156-0.50781 0-0.80078 0.34766t-0.29297 0.96484v2.4492h-0.70313v-3.3242q0-0.73828-0.0234-0.90234h0.66406q4e-3 0.01953 8e-3 0.10547t8e-3 0.19922q8e-3 0.10938 0.0156 0.41797h0.0117q0.24219-0.4375 0.55859-0.61719 0.32031-0.18359 0.79297-0.18359 0.69531 0 1.0156 0.34766 0.32421 0.34375 0.32421 1.1406v2.8164z"/>
   <path d="m115.62 66.203v-0.625h1.9531v0.625z"/>
   <path d="m118.47 68.016v-5.7969h0.70312v5.7969z"/>
   <path d="m120.25 62.891v-0.67188h0.70313v0.67188zm0 5.125v-4.2266h0.70313v4.2266z"/>
   <path d="m124.72 68.016v-2.6797q0-0.41797-0.082-0.64844t-0.26172-0.33203q-0.17968-0.10156-0.52734-0.10156-0.50781 0-0.80078 0.34766t-0.29297 0.96484v2.4492h-0.70313v-3.3242q0-0.73828-0.0234-0.90234h0.66406q4e-3 0.01953 8e-3 0.10547t8e-3 0.19922q8e-3 0.10938 0.0156 0.41797h0.0117q0.24219-0.4375 0.55859-0.61719 0.32031-0.18359 0.79297-0.18359 0.69531 0 1.0156 0.34766 0.32421 0.34375 0.32421 1.1406v2.8164z"/>
   <path d="m127.03 66.051q0 0.72656 0.30078 1.1211t0.8789 0.39453q0.45704 0 0.73047-0.18359 0.27735-0.18359 0.375-0.46484l0.61719 0.17578q-0.37891 1-1.7227 1-0.9375 0-1.4297-0.55859-0.48828-0.55859-0.48828-1.6602 0-1.0469 0.48828-1.6055 0.49218-0.55859 1.4023-0.55859 1.8633 0 1.8633 2.2461v0.09375zm2.2891-0.53906q-0.0586-0.66797-0.33984-0.97266-0.28125-0.30859-0.8086-0.30859-0.51172 0-0.8125 0.34375-0.29687 0.33984-0.32031 0.9375z"/>
   <path d="m98.233 84.003q-0.19531 0.40625-0.51953 0.58203-0.32031 0.17578-0.79688 0.17578-0.80078 0-1.1797-0.53906-0.375-0.53906-0.375-1.6328 0-2.2109 1.5547-2.2109 0.48047 0 0.80078 0.17578t0.51562 0.55859h0.0078l-0.0078-0.47266v-1.7539h0.70312v4.9258q0 0.66016 0.02344 0.87109h-0.67188q-0.01172-0.0625-0.02734-0.28906-0.01172-0.22656-0.01172-0.39062zm-2.1328-1.4375q0 0.88672 0.23438 1.2695 0.23438 0.38281 0.76172 0.38281 0.59766 0 0.86719-0.41406t0.26953-1.2852q0-0.83984-0.26953-1.2305t-0.85938-0.39062q-0.53125 0-0.76953 0.39453-0.23438 0.39062-0.23438 1.2734z"/>
   <path d="m100.56 82.718q0 0.72656 0.30078 1.1211t0.8789 0.39453q0.45704 0 0.73047-0.18359 0.27735-0.18359 0.375-0.46484l0.61719 0.17578q-0.37891 1-1.7227 1-0.9375 0-1.4297-0.55859-0.48828-0.55859-0.48828-1.6602 0-1.0469 0.48828-1.6055 0.49218-0.55859 1.4023-0.55859 1.8633 0 1.8633 2.2461v0.09375zm2.2891-0.53906q-0.0586-0.66797-0.33984-0.97266-0.28125-0.30859-0.8086-0.30859-0.51172 0-0.8125 0.34375-0.29687 0.33984-0.32031 0.9375z"/>
   <path d="m106.33 84.683h-0.83203l-1.5352-4.2266h0.75l0.92969 2.75q0.0508 0.15625 0.26953 0.92578l0.13672-0.45703 0.15234-0.46094 0.96094-2.7578h0.74609z"/>
   <path d="m108.47 79.558v-0.67188h0.70313v0.67188zm0 5.125v-4.2266h0.70313v4.2266z"/>
   <path d="m110.79 82.55q0 0.84375 0.26562 1.25 0.26563 0.40625 0.80078 0.40625 0.375 0 0.625-0.20312 0.25391-0.20312 0.3125-0.625l0.71094 0.04687q-0.082 0.60938-0.51953 0.97266-0.4375 0.36328-1.1094 0.36328-0.88672 0-1.3555-0.55859-0.46484-0.5625-0.46484-1.6367 0-1.0664 0.46875-1.625 0.46875-0.5625 1.3438-0.5625 0.64844 0 1.0742 0.33594 0.42969 0.33594 0.53906 0.92578l-0.72265 0.05469q-0.0547-0.35156-0.27735-0.55859t-0.63281-0.20703q-0.55859 0-0.80859 0.37109t-0.25 1.25z"/>
   <path d="m114.79 82.718q0 0.72656 0.30078 1.1211t0.87891 0.39453q0.45703 0 0.73047-0.18359 0.27734-0.18359 0.375-0.46484l0.61719 0.17578q-0.37891 1-1.7227 1-0.9375 0-1.4297-0.55859-0.48828-0.55859-0.48828-1.6602 0-1.0469 0.48828-1.6055 0.49219-0.55859 1.4024-0.55859 1.8633 0 1.8633 2.2461v0.09375zm2.2891-0.53906q-0.0586-0.66797-0.33984-0.97266-0.28125-0.30859-0.80859-0.30859-0.51172 0-0.8125 0.34375-0.29688 0.33984-0.32032 0.9375z"/>
   <path d="m121.88 83.515q0 0.59766-0.45313 0.92188-0.44921 0.32422-1.2617 0.32422-0.78907 0-1.2188-0.25781-0.42579-0.26172-0.55469-0.8125l0.62109-0.12109q0.0898 0.33984 0.3711 0.5 0.28125 0.15625 0.78125 0.15625 0.53515 0 0.78125-0.16406 0.25-0.16406 0.25-0.49219 0-0.25-0.17188-0.40625-0.17187-0.15625-0.55469-0.25781l-0.5039-0.13281q-0.60547-0.15625-0.86328-0.30469-0.25391-0.15234-0.39844-0.36719t-0.14453-0.52734q0-0.57812 0.41015-0.87891 0.41407-0.30469 1.2031-0.30469 0.69922 0 1.1094 0.24609 0.41407 0.24609 0.52344 0.78906l-0.63281 0.07813q-0.0586-0.28125-0.31641-0.42969-0.2539-0.15234-0.68359-0.15234-0.47656 0-0.70313 0.14453-0.22656 0.14453-0.22656 0.4375 0 0.17969 0.0937 0.29688t0.27734 0.19922q0.1836 0.08203 0.77344 0.22656 0.5586 0.14062 0.80469 0.26172 0.24609 0.11719 0.38672 0.26172 0.14453 0.14453 0.22265 0.33594 0.0781 0.1875 0.0781 0.42969z"/>
  </g>
  <text transform="scale(1.0158 .98444)" x="275.77902" y="157.34232" style="fill:#000000;font-family:sans-serif;font-size:12.586px;letter-spacing:0px;line-height:1.25;stroke-width:.94394;word-spacing:0px" xml:space="preserve"><tspan x="275.77902" y="157.34232" style="font-size:10.069px;stroke-width:.94394"/></text>
  <g id="rx" transform="matrix(3.7796 0 0 3.7796 -138.23 -292.41)">
   <g transform="matrix(-1.236,0,0,1.3487,147.46,-17.998)" style="fill:#ff4141;stroke:#b50000">
    <path d="m31.768 102.36-11.941 5.7454v-11.491l5.9708 2.8727z" style="fill:#ff4141;stroke-linejoin:round;stroke-width:.36623;stroke:#b50000"/>
   </g>
   <text x="115.42167" y="121.30454" style="fill:#ffffff;font-family:sans-serif;font-size:8.922px;letter-spacing:0px;line-height:1.25;stroke-width:.22304;word-spacing:0px" xml:space="preserve"><tspan x="115.42167" y="121.30454" style="fill:#ffffff;font-size:4.1635px;stroke-width:.22304">Rx</tspan></text>
  </g>
 </g>
</svg>
