<svg width="300" height="400" id="gs-antenna" version="1.0" viewBox="0 0 300 400" xmlns="http://www.w3.org/2000/svg">
 <g transform="matrix(.1 0 0 -.1 0 973.75)">
  <g transform="matrix(.29849 0 0 .31178 -17.115 5746.6)">
   <path d="m5295 12790c-33-5-121-14-195-20-416-36-854-146-1257-316-64-27-93-44-93-55 0-17 137-419 145-427 2-3 47 14 99 37 271 119 607 217 908 266 377 60 848 61 1223 0 810-130 1582-513 2219-1100 580-534 1026-1237 1279-2015 28-85 51-157 53-159 3-3 404 128 404 133 0 1-26 80-59 176-159 476-375 918-641 1315-346 517-806 985-1310 1336-654 453-1448 748-2185 809-77 6-173 15-213 21-85 11-290 10-377-1z"/>
   <path d="m5195 11520c-237-19-510-73-735-145-143-46-330-124-336-140-4-10 120-382 130-393 3-2 60 19 128 46 478 193 983 261 1472 197 1194-157 2198-1043 2616-2310 23-71 46-133 49-138 10-10 381 111 387 127 18 47-188 555-326 806-555 1008-1498 1712-2550 1905-241 44-604 63-835 45z"/>
   <path d="m5255 10373c-197-16-356-44-505-89-106-32-290-103-290-112s122-376 126-381c2-2 52 15 111 39 128 50 216 73 378 101 155 26 442 36 585 20 779-90 1372-607 1722-1503 34-87 66-158 71-158 29 0 397 125 397 135 0 19-55 174-104 295-273 667-826 1224-1471 1483-321 129-719 195-1020 170z"/>
   <path d="m66 9698c-8-27-26-188-36-333-6-82-15-191-20-242-18-172-14-291 26-753 76-882 362-1761 821-2526 265-440 547-798 921-1166 466-458 934-794 1512-1082s1162-473 1785-565c476-70 1044-80 1525-25 1190 135 2326 634 3225 1418 44 38 80 74 80 78 0 5-279 156-620 336-3289 1739-4075 2156-4075 2166 0 6 55 117 123 246 118 225 124 235 157 243 165 39 252 87 344 189 205 226 206 588 2 776-91 84-191 122-320 122-240-1-467-189-532-441-31-121-19-278 28-372 11-21 18-48 16-60-5-36-239-477-253-477-7 0-708 367-1557 816-1860 984-3107 1643-3131 1656-12 6-18 5-21-4z"/>
   <path d="m2067 3623c-3-5-76-233-162-508-433-1384-706-2109-1089-2899l-106-219 682 6c376 4 1499 10 2496 14 996 3 1812 10 1812 15 0 4-42 93-94 196-312 623-664 1474-875 2113l-32 96-142 28c-524 101-1e3 261-1452 490-339 171-599 337-889 568-74 59-137 107-140 107s-7-3-9-7z"/>
  </g>
 </g>
</svg>
