<?xml version="1.0" encoding="UTF-8" standalone="no"?>
<!DOCTYPE svg PUBLIC "-//W3C//DTD SVG 1.1//EN"
 "http://www.w3.org/Graphics/SVG/1.1/DTD/svg11.dtd">
<!-- Generated by graphviz version 2.47.3 (20210619.1520)
 -->
<!-- Title: dependencies Pages: 1 -->
<svg width="708pt" height="247pt"
 viewBox="0.00 0.00 708.00 246.80" xmlns="http://www.w3.org/2000/svg" xmlns:xlink="http://www.w3.org/1999/xlink">
<g id="graph0" class="graph" transform="scale(1 1) rotate(0) translate(4 242.8)">
<title>dependencies</title>
<polygon fill="white" stroke="transparent" points="-4,4 -4,-242.8 704,-242.8 704,4 -4,4"/>
<text text-anchor="middle" x="350" y="-8.2" font-family="sans-serif" font-size="14.00">dependencies</text>
<g id="clust1" class="cluster">
<title>cluster_WelcomeModule</title>
<polygon fill="none" stroke="black" stroke-dasharray="1,5" points="8,-32.8 8,-230.8 692,-230.8 692,-32.8 8,-32.8"/>
</g>
<g id="clust4" class="cluster">
<title>cluster_WelcomeModule_imports</title>
<polygon fill="none" stroke="black" points="174,-40.8 174,-92.8 684,-92.8 684,-40.8 174,-40.8"/>
</g>
<g id="clust5" class="cluster">
<title>cluster_WelcomeModule_exports</title>
<polygon fill="none" stroke="black" points="337,-170.8 337,-222.8 491,-222.8 491,-170.8 337,-170.8"/>
</g>
<g id="clust2" class="cluster">
<title>cluster_WelcomeModule_declarations</title>
<polygon fill="none" stroke="black" points="16,-40.8 16,-92.8 166,-92.8 166,-40.8 16,-40.8"/>
</g>
<!-- WelcomeComponent -->
<g id="node1" class="node">
<title>WelcomeComponent</title>
<polygon fill="#ffffb3" stroke="black" points="158.47,-84.8 23.53,-84.8 23.53,-48.8 158.47,-48.8 158.47,-84.8"/>
<text text-anchor="middle" x="91" y="-62.6" font-family="Times,serif" font-size="14.00">WelcomeComponent</text>
</g>
<!-- WelcomeModule -->
<g id="node2" class="node">
<title>WelcomeModule</title>
<polygon fill="#8dd3c7" stroke="black" points="470.69,-149.8 467.69,-153.8 446.69,-153.8 443.69,-149.8 357.31,-149.8 357.31,-113.8 470.69,-113.8 470.69,-149.8"/>
<text text-anchor="middle" x="414" y="-127.6" font-family="Times,serif" font-size="14.00">WelcomeModule</text>
</g>
<!-- WelcomeComponent&#45;&gt;WelcomeModule -->
<g id="edge1" class="edge">
<title>WelcomeComponent&#45;&gt;WelcomeModule</title>
<path fill="none" stroke="black" d="M91,-85.08C91,-106.12 91,-137.8 91,-137.8 91,-137.8 347.37,-137.8 347.37,-137.8"/>
<polygon fill="black" stroke="black" points="347.37,-141.3 357.37,-137.8 347.37,-134.3 347.37,-141.3"/>
</g>
<!-- WelcomeComponent  -->
<g id="node7" class="node">
<title>WelcomeComponent </title>
<polygon fill="#fb8072" stroke="black" points="483.47,-214.8 344.53,-214.8 344.53,-178.8 483.47,-178.8 483.47,-214.8"/>
<text text-anchor="middle" x="414" y="-192.6" font-family="Times,serif" font-size="14.00">WelcomeComponent </text>
</g>
<!-- WelcomeModule&#45;&gt;WelcomeComponent  -->
<g id="edge6" class="edge">
<title>WelcomeModule&#45;&gt;WelcomeComponent </title>
<path fill="none" stroke="black" stroke-dasharray="5,2" d="M414,-149.91C414,-149.91 414,-168.79 414,-168.79"/>
<polygon fill="black" stroke="black" points="410.5,-168.79 414,-178.79 417.5,-168.79 410.5,-168.79"/>
</g>
<!-- CardModule -->
<g id="node3" class="node">
<title>CardModule</title>
<polygon fill="#8dd3c7" stroke="black" points="676.26,-84.8 673.26,-88.8 652.26,-88.8 649.26,-84.8 589.74,-84.8 589.74,-48.8 676.26,-48.8 676.26,-84.8"/>
<text text-anchor="middle" x="633" y="-62.6" font-family="Times,serif" font-size="14.00">CardModule</text>
</g>
<!-- CardModule&#45;&gt;WelcomeModule -->
<g id="edge2" class="edge">
<title>CardModule&#45;&gt;WelcomeModule</title>
<path fill="none" stroke="black" d="M633,-85.08C633,-106.12 633,-137.8 633,-137.8 633,-137.8 480.68,-137.8 480.68,-137.8"/>
<polygon fill="black" stroke="black" points="480.68,-134.3 470.68,-137.8 480.68,-141.3 480.68,-134.3"/>
</g>
<!-- FormModule -->
<g id="node4" class="node">
<title>FormModule</title>
<polygon fill="#8dd3c7" stroke="black" points="571.88,-84.8 568.88,-88.8 547.88,-88.8 544.88,-84.8 482.12,-84.8 482.12,-48.8 571.88,-48.8 571.88,-84.8"/>
<text text-anchor="middle" x="527" y="-62.6" font-family="Times,serif" font-size="14.00">FormModule</text>
</g>
<!-- FormModule&#45;&gt;WelcomeModule -->
<g id="edge3" class="edge">
<title>FormModule&#45;&gt;WelcomeModule</title>
<path fill="none" stroke="black" d="M527.59,-84.82C527.59,-102.17 527.59,-125.8 527.59,-125.8 527.59,-125.8 480.79,-125.8 480.79,-125.8"/>
<polygon fill="black" stroke="black" points="480.79,-122.3 470.79,-125.8 480.79,-129.3 480.79,-122.3"/>
</g>
<!-- LoggerModule -->
<g id="node5" class="node">
<title>LoggerModule</title>
<polygon fill="#8dd3c7" stroke="black" points="463.98,-84.8 460.98,-88.8 439.98,-88.8 436.98,-84.8 364.02,-84.8 364.02,-48.8 463.98,-48.8 463.98,-84.8"/>
<text text-anchor="middle" x="414" y="-62.6" font-family="Times,serif" font-size="14.00">LoggerModule</text>
</g>
<!-- LoggerModule&#45;&gt;WelcomeModule -->
<g id="edge4" class="edge">
<title>LoggerModule&#45;&gt;WelcomeModule</title>
<path fill="none" stroke="black" d="M414,-84.91C414,-84.91 414,-103.79 414,-103.79"/>
<polygon fill="black" stroke="black" points="410.5,-103.79 414,-113.79 417.5,-103.79 410.5,-103.79"/>
</g>
<!-- NavigationSidebarModule -->
<g id="node6" class="node">
<title>NavigationSidebarModule</title>
<polygon fill="#8dd3c7" stroke="black" points="346.02,-84.8 343.02,-88.8 322.02,-88.8 319.02,-84.8 181.98,-84.8 181.98,-48.8 346.02,-48.8 346.02,-84.8"/>
<text text-anchor="middle" x="264" y="-62.6" font-family="Times,serif" font-size="14.00">NavigationSidebarModule</text>
</g>
<!-- NavigationSidebarModule&#45;&gt;WelcomeModule -->
<g id="edge5" class="edge">
<title>NavigationSidebarModule&#45;&gt;WelcomeModule</title>
<path fill="none" stroke="black" d="M263.25,-84.82C263.25,-102.17 263.25,-125.8 263.25,-125.8 263.25,-125.8 347.01,-125.8 347.01,-125.8"/>
<polygon fill="black" stroke="black" points="347.01,-129.3 357.01,-125.8 347.01,-122.3 347.01,-129.3"/>
</g>
</g>
</svg>
