<?xml version="1.0" encoding="UTF-8" standalone="no"?>
<!DOCTYPE svg PUBLIC "-//W3C//DTD SVG 1.1//EN"
 "http://www.w3.org/Graphics/SVG/1.1/DTD/svg11.dtd">
<!-- Generated by graphviz version 2.47.3 (20210619.1520)
 -->
<!-- Title: dependencies Pages: 1 -->
<svg width="946pt" height="247pt"
 viewBox="0.00 0.00 946.00 246.80" xmlns="http://www.w3.org/2000/svg" xmlns:xlink="http://www.w3.org/1999/xlink">
<g id="graph0" class="graph" transform="scale(1 1) rotate(0) translate(4 242.8)">
<title>dependencies</title>
<polygon fill="white" stroke="transparent" points="-4,4 -4,-242.8 942,-242.8 942,4 -4,4"/>
<text text-anchor="middle" x="469" y="-8.2" font-family="sans-serif" font-size="14.00">dependencies</text>
<g id="clust1" class="cluster">
<title>cluster_ResultSidebarModule</title>
<polygon fill="none" stroke="black" stroke-dasharray="1,5" points="8,-32.8 8,-230.8 930,-230.8 930,-32.8 8,-32.8"/>
</g>
<g id="clust6" class="cluster">
<title>cluster_ResultSidebarModule_exports</title>
<polygon fill="none" stroke="black" points="339,-170.8 339,-222.8 663,-222.8 663,-170.8 339,-170.8"/>
</g>
<g id="clust2" class="cluster">
<title>cluster_ResultSidebarModule_declarations</title>
<polygon fill="none" stroke="black" points="606,-40.8 606,-92.8 922,-92.8 922,-40.8 606,-40.8"/>
</g>
<g id="clust5" class="cluster">
<title>cluster_ResultSidebarModule_imports</title>
<polygon fill="none" stroke="black" points="16,-40.8 16,-92.8 598,-92.8 598,-40.8 16,-40.8"/>
</g>
<!-- ResultSidebarComponent -->
<g id="node1" class="node">
<title>ResultSidebarComponent</title>
<polygon fill="#ffffb3" stroke="black" points="913.87,-84.8 754.13,-84.8 754.13,-48.8 913.87,-48.8 913.87,-84.8"/>
<text text-anchor="middle" x="834" y="-62.6" font-family="Times,serif" font-size="14.00">ResultSidebarComponent</text>
</g>
<!-- ResultSidebarModule -->
<g id="node3" class="node">
<title>ResultSidebarModule</title>
<polygon fill="#8dd3c7" stroke="black" points="560.09,-149.8 557.09,-153.8 536.09,-153.8 533.09,-149.8 421.91,-149.8 421.91,-113.8 560.09,-113.8 560.09,-149.8"/>
<text text-anchor="middle" x="491" y="-127.6" font-family="Times,serif" font-size="14.00">ResultSidebarModule</text>
</g>
<!-- ResultSidebarComponent&#45;&gt;ResultSidebarModule -->
<g id="edge1" class="edge">
<title>ResultSidebarComponent&#45;&gt;ResultSidebarModule</title>
<path fill="none" stroke="black" d="M834,-85.08C834,-106.12 834,-137.8 834,-137.8 834,-137.8 570.41,-137.8 570.41,-137.8"/>
<polygon fill="black" stroke="black" points="570.41,-134.3 560.41,-137.8 570.41,-141.3 570.41,-134.3"/>
</g>
<!-- ResultsComponent -->
<g id="node2" class="node">
<title>ResultsComponent</title>
<polygon fill="#ffffb3" stroke="black" points="736.05,-84.8 613.95,-84.8 613.95,-48.8 736.05,-48.8 736.05,-84.8"/>
<text text-anchor="middle" x="675" y="-62.6" font-family="Times,serif" font-size="14.00">ResultsComponent</text>
</g>
<!-- ResultsComponent&#45;&gt;ResultSidebarModule -->
<g id="edge2" class="edge">
<title>ResultsComponent&#45;&gt;ResultSidebarModule</title>
<path fill="none" stroke="black" d="M634.2,-84.82C634.2,-102.17 634.2,-125.8 634.2,-125.8 634.2,-125.8 570.09,-125.8 570.09,-125.8"/>
<polygon fill="black" stroke="black" points="570.09,-122.3 560.09,-125.8 570.09,-129.3 570.09,-122.3"/>
</g>
<!-- ResultSidebarComponent  -->
<g id="node8" class="node">
<title>ResultSidebarComponent </title>
<polygon fill="#fb8072" stroke="black" points="654.87,-214.8 491.13,-214.8 491.13,-178.8 654.87,-178.8 654.87,-214.8"/>
<text text-anchor="middle" x="573" y="-192.6" font-family="Times,serif" font-size="14.00">ResultSidebarComponent </text>
</g>
<!-- ResultSidebarModule&#45;&gt;ResultSidebarComponent  -->
<g id="edge7" class="edge">
<title>ResultSidebarModule&#45;&gt;ResultSidebarComponent </title>
<path fill="none" stroke="black" stroke-dasharray="5,2" d="M525.68,-149.91C525.68,-149.91 525.68,-168.79 525.68,-168.79"/>
<polygon fill="black" stroke="black" points="522.18,-168.79 525.68,-178.79 529.18,-168.79 522.18,-168.79"/>
</g>
<!-- ResultsComponent  -->
<g id="node9" class="node">
<title>ResultsComponent </title>
<polygon fill="#fb8072" stroke="black" points="473.05,-214.8 346.95,-214.8 346.95,-178.8 473.05,-178.8 473.05,-214.8"/>
<text text-anchor="middle" x="410" y="-192.6" font-family="Times,serif" font-size="14.00">ResultsComponent </text>
</g>
<!-- ResultSidebarModule&#45;&gt;ResultsComponent  -->
<g id="edge8" class="edge">
<title>ResultSidebarModule&#45;&gt;ResultsComponent </title>
<path fill="none" stroke="black" stroke-dasharray="5,2" d="M447.49,-149.91C447.49,-149.91 447.49,-168.79 447.49,-168.79"/>
<polygon fill="black" stroke="black" points="443.99,-168.79 447.49,-178.79 450.99,-168.79 443.99,-168.79"/>
</g>
<!-- CardModule -->
<g id="node4" class="node">
<title>CardModule</title>
<polygon fill="#8dd3c7" stroke="black" points="590.26,-84.8 587.26,-88.8 566.26,-88.8 563.26,-84.8 503.74,-84.8 503.74,-48.8 590.26,-48.8 590.26,-84.8"/>
<text text-anchor="middle" x="547" y="-62.6" font-family="Times,serif" font-size="14.00">CardModule</text>
</g>
<!-- CardModule&#45;&gt;ResultSidebarModule -->
<g id="edge3" class="edge">
<title>CardModule&#45;&gt;ResultSidebarModule</title>
<path fill="none" stroke="black" d="M531.83,-84.91C531.83,-84.91 531.83,-103.79 531.83,-103.79"/>
<polygon fill="black" stroke="black" points="528.33,-103.79 531.83,-113.79 535.33,-103.79 528.33,-103.79"/>
</g>
<!-- LoggerModule -->
<g id="node5" class="node">
<title>LoggerModule</title>
<polygon fill="#8dd3c7" stroke="black" points="485.98,-84.8 482.98,-88.8 461.98,-88.8 458.98,-84.8 386.02,-84.8 386.02,-48.8 485.98,-48.8 485.98,-84.8"/>
<text text-anchor="middle" x="436" y="-62.6" font-family="Times,serif" font-size="14.00">LoggerModule</text>
</g>
<!-- LoggerModule&#45;&gt;ResultSidebarModule -->
<g id="edge4" class="edge">
<title>LoggerModule&#45;&gt;ResultSidebarModule</title>
<path fill="none" stroke="black" d="M453.97,-84.91C453.97,-84.91 453.97,-103.79 453.97,-103.79"/>
<polygon fill="black" stroke="black" points="450.47,-103.79 453.97,-113.79 457.47,-103.79 450.47,-103.79"/>
</g>
<!-- NavigationSidebarModule -->
<g id="node6" class="node">
<title>NavigationSidebarModule</title>
<polygon fill="#8dd3c7" stroke="black" points="368.02,-84.8 365.02,-88.8 344.02,-88.8 341.02,-84.8 203.98,-84.8 203.98,-48.8 368.02,-48.8 368.02,-84.8"/>
<text text-anchor="middle" x="286" y="-62.6" font-family="Times,serif" font-size="14.00">NavigationSidebarModule</text>
</g>
<!-- NavigationSidebarModule&#45;&gt;ResultSidebarModule -->
<g id="edge5" class="edge">
<title>NavigationSidebarModule&#45;&gt;ResultSidebarModule</title>
<path fill="none" stroke="black" d="M357.62,-84.82C357.62,-102.17 357.62,-125.8 357.62,-125.8 357.62,-125.8 411.57,-125.8 411.57,-125.8"/>
<polygon fill="black" stroke="black" points="411.57,-129.3 421.57,-125.8 411.57,-122.3 411.57,-129.3"/>
</g>
<!-- SyntheticDrawingModule -->
<g id="node7" class="node">
<title>SyntheticDrawingModule</title>
<polygon fill="#8dd3c7" stroke="black" points="185.91,-84.8 182.91,-88.8 161.91,-88.8 158.91,-84.8 24.09,-84.8 24.09,-48.8 185.91,-48.8 185.91,-84.8"/>
<text text-anchor="middle" x="105" y="-62.6" font-family="Times,serif" font-size="14.00">SyntheticDrawingModule</text>
</g>
<!-- SyntheticDrawingModule&#45;&gt;ResultSidebarModule -->
<g id="edge6" class="edge">
<title>SyntheticDrawingModule&#45;&gt;ResultSidebarModule</title>
<path fill="none" stroke="black" d="M105,-85.08C105,-106.12 105,-137.8 105,-137.8 105,-137.8 411.55,-137.8 411.55,-137.8"/>
<polygon fill="black" stroke="black" points="411.55,-141.3 421.55,-137.8 411.55,-134.3 411.55,-141.3"/>
</g>
</g>
</svg>
